<svg xmlns="http://www.w3.org/2000/svg" version="1.1" xmlns:xlink="http://www.w3.org/1999/xlink" width="512" height="512" x="0" y="0" viewBox="0 0 24 24" style="enable-background:new 0 0 512 512" xml:space="preserve" class=""><g><g data-name="Layer 2"><path d="M11.713 23H4.909a2 2 0 0 1-1.7-3.055l.46-.74a11.1 11.1 0 0 1-2.516-9.068A10.933 10.933 0 0 1 9.72 1.23a11.012 11.012 0 0 1 13.262 11.427A11.157 11.157 0 0 1 11.713 23zm.274-19.998a9.453 9.453 0 0 0-1.872.189 8.92 8.92 0 0 0-6.988 7.27A9.054 9.054 0 0 0 5.2 17.898a2.011 2.011 0 0 1 .167 2.363l-.46.74h6.805a9.155 9.155 0 0 0 9.27-8.46 8.995 8.995 0 0 0-8.996-9.538z" fill="#000000" opacity="1" data-original="#000000" class=""></path><path d="M13 16.875h-1a1 1 0 0 1-1-1v-4a1 1 0 0 1 0-2h1a1 1 0 0 1 1 1v4a1 1 0 0 1 0 2z" fill="#000000" opacity="1" data-original="#000000" class=""></path><circle cx="12" cy="7.375" r="1.25" fill="#000000" opacity="1" data-original="#000000" class=""></circle></g></g></svg>