<svg xmlns="http://www.w3.org/2000/svg" width="82" height="58.123" viewBox="0 0 82 58.123">
  <g id="Group_286979" data-name="Group 286979" transform="translate(-279 -516)">
    <text id="Add_Phots" data-name="Add Phots" transform="translate(280 568.123)" stroke="rgba(0,0,0,0)" stroke-width="1" font-size="17" font-family="GoogleSans-Regular, Google Sans"><tspan x="0" y="0">Add Phots</tspan></text>
    <g id="image-gallery_1_" data-name="image-gallery (1)" transform="translate(305.523 516)">
      <g id="Group_199501" data-name="Group 199501" transform="translate(0 9.36)">
        <path id="Path_238200" data-name="Path 238200" d="M21.212,27.08a2.424,2.424,0,0,1-.62-.08L1.8,21.967A2.453,2.453,0,0,1,.08,18.989l2.371-8.838a.608.608,0,0,1,1.174.314L1.255,19.3a1.233,1.233,0,0,0,.863,1.494L20.9,25.824a1.21,1.21,0,0,0,1.479-.856l.949-3.517a.608.608,0,1,1,1.174.316l-.948,3.512a2.427,2.427,0,0,1-2.347,1.8Z" transform="translate(0 -9.701)"/>
      </g>
      <g id="Group_199502" data-name="Group 199502" transform="translate(4.861 0)">
        <path id="Path_238201" data-name="Path 238201" d="M25.877,21.446H6.431A2.433,2.433,0,0,1,4,19.015V4.431A2.433,2.433,0,0,1,6.431,2H25.877a2.433,2.433,0,0,1,2.431,2.431V19.015A2.433,2.433,0,0,1,25.877,21.446ZM6.431,3.215A1.217,1.217,0,0,0,5.215,4.431V19.015a1.217,1.217,0,0,0,1.215,1.215H25.877a1.217,1.217,0,0,0,1.215-1.215V4.431a1.217,1.217,0,0,0-1.215-1.215Z" transform="translate(-4 -2)"/>
      </g>
      <g id="Group_199503" data-name="Group 199503" transform="translate(8.507 3.646)">
        <path id="Path_238202" data-name="Path 238202" d="M9.431,9.862a2.431,2.431,0,1,1,2.431-2.431A2.433,2.433,0,0,1,9.431,9.862Zm0-3.646a1.215,1.215,0,1,0,1.215,1.215A1.217,1.217,0,0,0,9.431,6.215Z" transform="translate(-7 -5)"/>
      </g>
      <g id="Group_199504" data-name="Group 199504" transform="translate(4.946 6.745)">
        <path id="Path_238203" data-name="Path 238203" d="M4.678,18.95a.607.607,0,0,1-.43-1.037l5.74-5.74a1.868,1.868,0,0,1,2.578,0l1.709,1.709L19,8.206a1.826,1.826,0,0,1,1.388-.656h.013a1.822,1.822,0,0,1,1.384.636L28.147,15.6a.608.608,0,0,1-.922.791L20.868,8.977a.6.6,0,0,0-.462-.211.645.645,0,0,0-.467.219l-5.157,6.188a.605.605,0,0,1-.44.218.585.585,0,0,1-.457-.177l-2.179-2.179a.624.624,0,0,0-.859,0l-5.74,5.74a.606.606,0,0,1-.429.177Z" transform="translate(-4.07 -7.55)"/>
      </g>
    </g>
  </g>
</svg>
