<svg id="Add_medical_store_" data-name="Add medical store " xmlns="http://www.w3.org/2000/svg" width="79" height="85.565" viewBox="0 0 79 85.565">
  <path id="Path_276704" data-name="Path 276704" d="M-943.4,474.644a1.9,1.9,0,0,1-.83-1.764c.039-2.364.05-4.73.006-7.094a8.782,8.782,0,0,1,4.824-8.453c0-2.471.02-4.972-.011-7.473a1.437,1.437,0,0,1,1.19-1.637c1.063.262,1.325.585,1.327,1.676,0,2.222,0,4.444,0,6.546l3.934.312V455.9c0-3.676-.011-7.352,0-11.029a4.627,4.627,0,0,1,5.006-4.987q8.23,0,16.459,0a4.646,4.646,0,0,1,4.982,4.94q.015,8.856,0,17.713a4.626,4.626,0,0,1-4.971,4.941q-7.31.008-14.621,0H-927v4.6h25.7v-.961q0-13.034,0-26.068a4.614,4.614,0,0,1,4.942-4.962q5.556-.007,11.112,0c3.146,0,5.028,1.889,5.032,5.043,0,1.662,0,3.324,0,5.065l1.148-.073h3.689c0-1.423,0-2.812,0-4.2,0-1.09.265-1.4,1.35-1.643a1.452,1.452,0,0,1,1.167,1.66c-.038,1.385-.01,2.771-.01,4.243,1.383,0,2.71,0,4.037,0,1.425,0,1.791.36,1.791,1.754,0,6.979-.009,13.958.014,20.937a1.936,1.936,0,0,1-.829,1.764Zm7.507-15.574a5.776,5.776,0,0,0-5.647,4.815,42.394,42.394,0,0,0-.163,4.9c-.02,1.1,0,2.2,0,3.326h12.125c0-2.309.007-4.558-.006-6.807a8.707,8.707,0,0,0-.124-1.413A5.934,5.934,0,0,0-935.888,459.07Zm64.353-6.326h-8.624v19.365h10.573V452.743Zm-58.856-8.193a1.39,1.39,0,0,0-.043.245c0,4.313-.013,8.627.015,12.939a1.4,1.4,0,0,0,.454.886,8.588,8.588,0,0,1,2.589,4.2c.18.69.249,1.409.378,2.173,1.708,0,3.4,0,5.095,0q5.382-.017,10.764-.043a2.038,2.038,0,0,0,2.112-2.262c.018-6.006.007-12.012.005-18.018a2.673,2.673,0,0,0-.04-.414,2.038,2.038,0,0,0-2.1-1.856q-8.55-.023-17.1,0A2.018,2.018,0,0,0-930.391,444.55Zm45.141,27.557h2.5c.014-.164.03-.271.03-.378q0-13.445,0-26.89a2.038,2.038,0,0,0-2.092-2.222c-3.952-.038-7.905-.018-11.858-.012a2.029,2.029,0,0,0-2.079,1.952c-.013.193-.036.387-.036.58q0,13.177,0,26.355v.614Z" transform="translate(945.598 -389.079)" fill="#030303"/>
  <path id="Path_276705" data-name="Path 276705" d="M-943,268.024a1.377,1.377,0,0,1-1.168-1.5c-.009-2.394,0-4.789,0-7.183v-.946a9.128,9.128,0,0,1-4.564-3.356,8.441,8.441,0,0,1-1.631-4.9c-.014-2.533-.033-5.067,0-7.6a6.566,6.566,0,0,1,6.343-6.749c.936-.076,1.883-.011,2.943-.011,0-.694,0-1.267,0-1.84.021-3.775,2.393-6.147,6.155-6.152,2.252,0,4.5,0,6.819,0a17.146,17.146,0,0,1,7.313-12.761,16.579,16.579,0,0,1,10.765-3.11,16.77,16.77,0,0,1,11.125,4.878,17.066,17.066,0,0,1,5.162,10.993c2.224,0,4.416-.008,6.607.006a10.708,10.708,0,0,1,1.742.129,5.557,5.557,0,0,1,4.579,4.954c.075.906.012,1.823.012,2.732a35.066,35.066,0,0,1,3.833.334,6.38,6.38,0,0,1,5.533,6.6c.059,2.5.078,5.013-.008,7.516a8.631,8.631,0,0,1-5.714,8.15c-.152.064-.3.135-.479.216,0,1.365-.019,2.729.007,4.091a1.355,1.355,0,0,1-1.2,1.536c-1.014-.233-1.309-.576-1.317-1.582-.01-1.21,0-2.421,0-3.5l-3.646-.841-.218-.1a9.569,9.569,0,0,1-3.933-3.564,8.794,8.794,0,0,1-7.624,4.315,8.861,8.861,0,0,1-7.68-4.267,8.987,8.987,0,0,1-15.3-.021,8.824,8.824,0,0,1-7.674,4.289,8.86,8.86,0,0,1-7.65-4.29,9.068,9.068,0,0,1-7.793,4.325c0,2.51,0,4.985,0,7.46C-941.668,267.436-941.87,267.7-943,268.024Zm53.968-32.373h5.754c0-.838.057-1.64-.012-2.432a3.109,3.109,0,0,0-3.077-2.918c-1.329-.043-2.661.011-3.991.022h-3.247l-1.28,5.327Zm-17.7-20.595a24.339,24.339,0,0,0-3.421-.628,14.647,14.647,0,0,0-15.129,17.64c1.391,7.046,8.383,12.3,15.374,11.551a7.127,7.127,0,0,0,.747-.014,14.654,14.654,0,0,0,10.911-21.962,13.755,13.755,0,0,0-7.977-6.425l-.336-.127Zm25.889,23.185c-.3-.022-.608-.064-.912-.064-4.6,0-9.191.009-13.786-.017a1.363,1.363,0,0,0-1.285.676,17.165,17.165,0,0,1-28.162.009,1.366,1.366,0,0,0-1.28-.685c-5.375.025-10.751.011-16.126.02a13.372,13.372,0,0,0-1.748.121,3.956,3.956,0,0,0-3.739,4.075c-.061,2.616-.083,5.238.007,7.852a6.312,6.312,0,0,0,6.323,6.068,6.454,6.454,0,0,0,6.4-6.04c.063-1.062.515-1.621,1.294-1.6.751.019,1.176.562,1.234,1.577a6.394,6.394,0,0,0,5.953,6.033,6.361,6.361,0,0,0,6.605-4.769,15.456,15.456,0,0,1,.307-1.8,1.665,1.665,0,0,1,.963-.967,1.783,1.783,0,0,1,1.248.559c.216.2.228.667.253,1.019a6.34,6.34,0,0,0,5.846,5.943,6.343,6.343,0,0,0,6.627-4.51,13.528,13.528,0,0,0,.289-1.888,1.288,1.288,0,0,1,1.273-1.2,1.257,1.257,0,0,1,1.225,1.228c.014.138.01.279.023.417a6.445,6.445,0,0,0,4.462,5.692,6.4,6.4,0,0,0,6.858-2.054,6.613,6.613,0,0,0,1.473-4,1.211,1.211,0,0,1,1.175-1.274,1.252,1.252,0,0,1,1.326,1.223c.031.22.021.445.037.667a6.237,6.237,0,0,0,4.683,5.45,6.287,6.287,0,0,0,8.018-5.6c.09-2.693.041-5.393,0-8.089a3.7,3.7,0,0,0-2.99-3.81A25.833,25.833,0,0,0-880.851,238.241Zm-47.384-7.93c-2.443,0-4.968-.062-7.489.025a2.916,2.916,0,0,0-2.737,2.413,21.28,21.28,0,0,0-.026,2.9h11.519Z" transform="translate(950.388 -211.884)" fill="#040303"/>
  <path id="Path_276706" data-name="Path 276706" d="M-917.252,416.5c1.133-.326,1.335-.588,1.336-1.762,0-2.475,0-4.949,0-7.46a9.068,9.068,0,0,0,7.793-4.325,8.86,8.86,0,0,0,7.65,4.29,8.824,8.824,0,0,0,7.674-4.289,8.987,8.987,0,0,0,15.3.021,8.861,8.861,0,0,0,7.68,4.267,8.794,8.794,0,0,0,7.624-4.315,9.57,9.57,0,0,0,3.933,3.564l.218.1c-.018.36-.051.719-.052,1.078q-.01,6.868-.012,13.735l-1.148.073c0-1.741,0-3.4,0-5.065,0-3.154-1.885-5.041-5.032-5.043q-5.556,0-11.112,0a4.614,4.614,0,0,0-4.942,4.962q-.006,13.034,0,26.068v.961h-25.7v-4.6h.907q7.311,0,14.621,0a4.626,4.626,0,0,0,4.971-4.941q.014-8.856,0-17.713a4.646,4.646,0,0,0-4.982-4.94q-8.229,0-16.459,0a4.627,4.627,0,0,0-5.006,4.987c-.015,3.676,0,7.352,0,11.029v.857l-3.934-.312c0-2.1,0-4.324,0-6.546,0-1.091-.264-1.414-1.327-1.676Z" transform="translate(924.636 -360.356)" fill="#f7f5f6"/>
  <path id="Path_276717" data-name="Path 276717" d="M-823.412,252.439c-6.99.748-13.982-4.505-15.374-11.551a14.647,14.647,0,0,1,15.129-17.64,24.339,24.339,0,0,1,3.421.628l.169.035.336.127a5.636,5.636,0,0,0,.423.557,36.61,36.61,0,0,1,3.438,3.578,14.916,14.916,0,0,1,2.836,11.135,15.071,15.071,0,0,1-6.157,10.685A44.83,44.83,0,0,1-823.412,252.439Zm3.308-18.866c0-1.159.013-2.216,0-3.271a1.738,1.738,0,0,0-1.952-1.961c-1.531-.016-3.061-.011-4.592,0-1.476.008-2.077.61-2.085,2.077-.006,1.044,0,2.087,0,3.157-1.2,0-2.278-.011-3.361,0a1.7,1.7,0,0,0-1.858,1.87c-.014,1.558-.008,3.117,0,4.675.005,1.432.587,2.016,2.027,2.029,1.049.01,2.1,0,3.195,0,0,1.1,0,2.1,0,3.1.006,1.5.637,2.146,2.112,2.152s2.95.007,4.425,0a1.826,1.826,0,0,0,2.094-2.089c.008-1.025,0-2.049,0-3.16,1.175,0,2.282.019,3.388-.005a1.68,1.68,0,0,0,1.836-1.888q.018-2.379,0-4.759a1.728,1.728,0,0,0-1.975-1.926C-817.91,233.567-818.962,233.573-820.1,233.573Z" transform="translate(863.884 -220.704)" fill="#f6f4f5"/>
  <path id="Path_276723" data-name="Path 276723" d="M-754.332,226.155l-.169-.035Z" transform="translate(798.149 -222.948)" fill="#dad7e9"/>
  <path id="Path_276724" data-name="Path 276724" d="M-652.282,419.023l-.217-.1Z" transform="translate(718.875 -372.788)" fill="#dbd8e9"/>
  <path id="Path_276725" data-name="Path 276725" d="M-726.509,512.588a1.225,1.225,0,0,1-1.28,1.237,1.233,1.233,0,0,1-1.239-1.2,1.272,1.272,0,0,1,1.239-1.3A1.27,1.27,0,0,1-726.509,512.588Z" transform="translate(778.352 -444.605)" fill="#060708"/>
  <path id="Path_276726" data-name="Path 276726" d="M-865.876,461.418l.811.01a5.589,5.589,0,0,1,4.011,2.279c1.751,2.3,3.534,4.585,5.269,6.9a5.435,5.435,0,0,1-.992,7.725,5.423,5.423,0,0,1-7.588-1.059c-1.8-2.265-3.547-4.574-5.3-6.881A5.455,5.455,0,0,1-865.876,461.418Zm4.815,9.352-3.282,2.421c.731.949,1.361,1.836,2.062,2.662a2.845,2.845,0,0,0,4.263.187,2.764,2.764,0,0,0,.493-3.538c-.632-.989-1.394-1.894-2.132-2.882Zm-1.585-2.081,1.442-1.043c-.763-.98-1.41-1.919-2.169-2.757a2.582,2.582,0,0,0-3.02-.744,2.769,2.769,0,0,0-1.725,3.988,32.15,32.15,0,0,0,2.249,3.127Z" transform="translate(888.646 -405.816)" fill="#030303"/>
  <path id="Path_276727" data-name="Path 276727" d="M-641.751,513.833c-.444,0-.89.029-1.332-.007a1.15,1.15,0,0,1-1.156-1.181,1.079,1.079,0,0,1,.982-1.24,17.367,17.367,0,0,1,3.067.01,1.076,1.076,0,0,1,.955,1.26,1.134,1.134,0,0,1-1.1,1.143c-.467.045-.943.009-1.414.009Z" transform="translate(712.457 -444.617)" fill="#070603"/>
  <path id="Path_276728" data-name="Path 276728" d="M-641.759,538.542c-.444,0-.891.031-1.332-.007a1.148,1.148,0,0,1-1.147-1.188,1.085,1.085,0,0,1,.991-1.234,16.947,16.947,0,0,1,2.988-.009,1.1,1.1,0,0,1,1.024,1.291,1.155,1.155,0,0,1-1.192,1.147c-.442.027-.888.005-1.332.005Z" transform="translate(712.456 -463.812)" fill="#070603"/>
  <path id="Path_276729" data-name="Path 276729" d="M-641.718,563.3c-.444,0-.89.023-1.332-.005a1.155,1.155,0,0,1-1.189-1.149,1.1,1.1,0,0,1,1.026-1.289,16.957,16.957,0,0,1,2.987.012,1.086,1.086,0,0,1,.989,1.236,1.148,1.148,0,0,1-1.15,1.186c-.441.038-.887.007-1.331.007Z" transform="translate(712.46 -483.047)" fill="#070603"/>
  <path id="Path_276730" data-name="Path 276730" d="M-802.257,251.353c1.142,0,2.2-.006,3.248,0a1.728,1.728,0,0,1,1.975,1.926q.016,2.379,0,4.759a1.68,1.68,0,0,1-1.836,1.888c-1.106.024-2.213.005-3.388.005,0,1.111.007,2.135,0,3.16a1.826,1.826,0,0,1-2.094,2.089q-2.213.011-4.425,0c-1.475-.006-2.107-.653-2.112-2.152,0-1,0-2,0-3.1-1.1,0-2.145.008-3.195,0-1.439-.014-2.021-.6-2.027-2.029-.006-1.558-.012-3.117,0-4.675a1.7,1.7,0,0,1,1.858-1.87c1.083-.014,2.166,0,3.361,0,0-1.07,0-2.114,0-3.157.008-1.467.609-2.069,2.085-2.077,1.531-.009,3.061-.014,4.592,0a1.738,1.738,0,0,1,1.952,1.961C-802.244,249.137-802.257,250.194-802.257,251.353Zm-4.653,11.307h2.15v-2.53c0-2.677.035-2.713,2.681-2.713h2.5V253.86c-1.231,0-2.419.006-3.608,0-1.135-.007-1.559-.426-1.567-1.555-.009-1.188,0-2.376,0-3.621h-3.624c0,1.178,0,2.312,0,3.445,0,1.353-.38,1.73-1.728,1.733-1.155,0-2.311,0-3.432,0v3.557c1.253,0,2.446-.015,3.639,0,1.081.018,1.51.459,1.519,1.534.01,1.216,0,2.433,0,3.7Z" transform="translate(846.036 -238.484)" fill="#040303"/>
  <path id="Path_276731" data-name="Path 276731" d="M-854,478.2l-3.224,2.572a32.15,32.15,0,0,1-2.249-3.127,2.769,2.769,0,0,1,1.725-3.988c.352.418.709.833,1.056,1.255Q-855.342,476.554-854,478.2Z" transform="translate(880 -415.328)" fill="#e85366"/>
  <path id="Path_276732" data-name="Path 276732" d="M-834.992,508.659a2.845,2.845,0,0,1-4.263-.187c-.7-.825-1.331-1.712-2.062-2.662l3.282-2.421c.327.478.643.965.984,1.434C-836.19,506.009-835.2,507.123-834.992,508.659Z" transform="translate(865.62 -438.436)" fill="#f5f3f4"/>
  <path id="Path_276733" data-name="Path 276733" d="M-823.545,504.646c-.207-1.536-1.2-2.65-2.06-3.835-.341-.469-.656-.956-.984-1.434l1.4-1.151c.738.988,1.5,1.894,2.132,2.882A2.764,2.764,0,0,1-823.545,504.646Z" transform="translate(854.173 -434.423)" fill="#d9d6e8"/>
  <path id="Path_276734" data-name="Path 276734" d="M-846.773,477.485q-1.346-1.644-2.692-3.289c-.347-.422-.7-.837-1.056-1.255a2.582,2.582,0,0,1,3.02.744c.759.838,1.406,1.777,2.169,2.757Z" transform="translate(872.774 -414.613)" fill="#e1374e"/>
  <path id="Path_276735" data-name="Path 276735" d="M-797.929,271.632H-799.4c0-1.27.008-2.487,0-3.7-.009-1.075-.437-1.517-1.519-1.534-1.193-.02-2.386,0-3.639,0v-3.557c1.121,0,2.276,0,3.432,0,1.348,0,1.724-.38,1.728-1.733,0-1.134,0-2.268,0-3.445h1.311c.053.156.095.318.161.469a15.784,15.784,0,0,1,.985,10.521C-797.208,269.658-797.6,270.637-797.929,271.632Z" transform="translate(837.055 -247.456)" fill="#e0374e"/>
  <path id="Path_276736" data-name="Path 276736" d="M-775.36,271.632c.331-.995.72-1.974.983-2.987a15.784,15.784,0,0,0-.985-10.521c-.066-.151-.108-.312-.161-.469h2.313c0,1.244-.007,2.433,0,3.621.008,1.129.432,1.548,1.567,1.555,1.189.007,2.377,0,3.608,0v3.557h-2.5c-2.645,0-2.681.036-2.681,2.713v2.53Z" transform="translate(814.487 -247.456)" fill="#e0374e"/>
</svg>
