<svg xmlns="http://www.w3.org/2000/svg" width="85.856" height="80.624" viewBox="0 0 85.856 80.624">
  <g id="add_order" data-name="add order" transform="translate(-1902 -334)">
    <g id="Group_4225" data-name="Group 4225" transform="translate(1910.777 342.372)">
      <path id="Path_276738" data-name="Path 276738" d="M-1235-15.932a8.616,8.616,0,0,1,.752-1.43,2.7,2.7,0,0,1,2.2-.979c.888-.01,1.777-.008,2.665-.012l10.115-.007c1.007,0,2.015,0,3.022.013.315,0,.438-.116.432-.432-.015-.719-.008-1.439-.01-2.158l1.837-.088c-.428.02-.856.057-1.284.055-.319,0-.477.09-.466.44.019.588.016,1.177,0,1.765-.008.318.117.433.43.426.731-.017,1.464-.019,2.2-.013a4.415,4.415,0,0,1,.589.082h-1.7c.047.084.054.119.074.127a3.007,3.007,0,0,1,1.866,2.991c.017,3.11.008,6.22,0,9.33a2.429,2.429,0,0,1-.566,1.591,9.84,9.84,0,0,0-1.009,1.45,11.393,11.393,0,0,0-1.619,5.314,9.923,9.923,0,0,0,.652,3.543,1.87,1.87,0,0,1-1.809,2.645c-5.2-.039-10.4-.018-15.593-.013a2.684,2.684,0,0,1-1.836-.726A3.545,3.545,0,0,1-1235,6.37Zm6.386,16.945c.053.085.1.176.16.255a7.43,7.43,0,0,0,8.976,2.165,7.231,7.231,0,0,0,4.343-7.185,7,7,0,0,0-2.916-5.53c-.235-.163-.461-.342-.706-.487a7.4,7.4,0,0,0-9.216,1.246,7.223,7.223,0,0,0-2,6.223A6.915,6.915,0,0,0-1228.614,1.013Z" transform="translate(1235 29.407)" fill="#a1a1a1"/>
      <path id="Path_276739" data-name="Path 276739" d="M-1235,35.478a3.545,3.545,0,0,0,.95,1.613,2.684,2.684,0,0,0,1.836.726c5.2-.005,10.4-.026,15.593.013a1.87,1.87,0,0,0,1.809-2.645,9.923,9.923,0,0,1-.652-3.543,11.393,11.393,0,0,1,1.619-5.314,9.84,9.84,0,0,1,1.009-1.45,2.429,2.429,0,0,0,.566-1.591c.005-3.11.014-6.22,0-9.33a3.007,3.007,0,0,0-1.866-2.991c-.019-.008-.026-.044-.074-.127h1.7a2.8,2.8,0,0,1,2.337,2.676c-.005.215-.016.431-.016.647,0,3.366-.011,6.731.01,10.1a1.58,1.58,0,0,1-.519,1.241,8.563,8.563,0,0,0-2.61,6.9,8.746,8.746,0,0,0,1.668,4.641,4.23,4.23,0,0,0,.505.507c-.336.624-.127,1.092.5,1.125.113.006.226,0,.34,0a2.863,2.863,0,0,1-2.823,2.061q-9.479.012-18.959,0a2.9,2.9,0,0,1-2.79-2c-.038-.107-.087-.21-.131-.315Z" transform="translate(1235 0.298)" fill="#868686"/>
      <path id="Path_276740" data-name="Path 276740" d="M-815.869,20.953a6.873,6.873,0,0,1,7.849,5.164c.059.234.119.467.179.7v7.175h-2.593c0-2.157.033-4.315-.008-6.472a6.478,6.478,0,0,0-3.445-5.743A15.28,15.28,0,0,0-815.869,20.953Z" transform="translate(852.099 -8.848)" fill="#cc264b"/>
      <path id="Path_276741" data-name="Path 276741" d="M-799.663,181.081c-.073.257-.147.513-.218.771a6.9,6.9,0,0,1-7.036,5.1l.5-.6a6.765,6.765,0,0,0,4.154-5.782q.017-3.111,0-6.223c0-.39.126-.544.524-.532.691.022,1.383.006,2.074.006Z" transform="translate(843.921 -148.59)" fill="#cc264b"/>
      <path id="Path_276742" data-name="Path 276742" d="M-806.239,172.976c-.691,0-1.383.016-2.074-.006-.4-.013-.527.142-.524.532q.019,3.111,0,6.223a6.766,6.766,0,0,1-4.154,5.782c.089-.131.173-.265.266-.392a8.654,8.654,0,0,0,1.716-4.761,8.806,8.806,0,0,0-2.153-6.334c-.028-.691-.267-.929-.957-.95a1.227,1.227,0,0,1,.4-.162c1.627-.014,3.254-.013,4.881-.016h2.593Z" transform="translate(850.497 -147.746)" fill="#cc264b"/>
      <path id="Path_276743" data-name="Path 276743" d="M-870.919,35.086c-1.627,0-3.254,0-4.881.016a1.228,1.228,0,0,0-.4.162l-.164.164c-.108-.2-.167-.457-.33-.577a8.68,8.68,0,0,0-4.828-1.746c-.407-.019-.554-.136-.548-.55.017-1.235,0-2.471,0-3.706a6.672,6.672,0,0,1,4.06-6.215,13.158,13.158,0,0,1,1.663-.59,15.284,15.284,0,0,1,1.981.826,6.478,6.478,0,0,1,3.445,5.743C-870.886,30.77-870.919,32.928-870.919,35.086Z" transform="translate(912.584 -9.94)" fill="#cc264b"/>
      <path id="Path_276744" data-name="Path 276744" d="M-975.518,46.9c0,1.235.02,2.471,0,3.706-.006.414.142.531.548.55a8.681,8.681,0,0,1,4.828,1.746c.163.12.223.381.33.577-.117.107-.238.209-.35.32q-5.861,5.859-11.72,11.72c-.1.1-.194.212-.29.318a4.232,4.232,0,0,1-.505-.507,8.746,8.746,0,0,1-1.668-4.641,8.563,8.563,0,0,1,2.61-6.9,1.58,1.58,0,0,0,.519-1.241c-.021-3.366-.011-6.731-.01-10.1,0-.215.01-.431.016-.647a6.161,6.161,0,0,1,.065.638q.006,5.069,0,10.137v.575a3.466,3.466,0,0,0,.305-.173,8.726,8.726,0,0,1,4.653-1.761c.556-.038.593-.09.594-.661,0-1.035,0-2.071,0-3.106A4.936,4.936,0,0,1-975.518,46.9Z" transform="translate(1006.025 -27.988)" fill="#fcda55"/>
      <path id="Path_276745" data-name="Path 276745" d="M-1200.067-102.438c-.484-.027-.968-.07-1.453-.077-1.03-.015-1.4-.375-1.4-1.415q0-2.461,0-4.921c0-.965.4-1.36,1.367-1.366l2.676-.015q0,3.891,0,7.782Z" transform="translate(1205.693 110.902)" fill="#a1a1a1"/>
      <path id="Path_276746" data-name="Path 276746" d="M-1023.084-102.394l-1.837.088c-.158,0-.316-.009-.474-.01-.641,0-.643,0-.643-.656q0-3.558,0-7.117c.921,0,1.843-.007,2.764,0a1.087,1.087,0,0,1,1.214,1.194q.008,2.678,0,5.356A1.04,1.04,0,0,1-1023.084-102.394Z" transform="translate(1044.101 110.776)" fill="#868686"/>
      <path id="Path_276747" data-name="Path 276747" d="M-1140-110.255l3.53-.013q0,3.892,0,7.784l-3.533.008Z" transform="translate(1148.209 110.935)" fill="#a1a1a1"/>
      <path id="Path_276748" data-name="Path 276748" d="M-1082.992-110.289l3.524-.015q.007,3.454.013,6.908c0,.733,0,.732-.742.822a1.179,1.179,0,0,0-.2.063c-.677,0-1.354,0-2.031,0-.535,0-.559-.024-.559-.565Q-1082.994-106.682-1082.992-110.289Z" transform="translate(1096.132 110.968)" fill="#a1a1a1"/>
      <path id="Path_276749" data-name="Path 276749" d="M-1162.454-112.083q0,3.608,0,7.216c0,.54.024.563.559.565.677,0,1.354,0,2.031,0q0,1.295.006,2.589l-10.115.007q0-1.295.005-2.59l1.195-.011c.186.488.5.725.835.555a2.543,2.543,0,0,0,.557-.549l3.533-.008c.245.639.818.816,1.161.339a1.105,1.105,0,0,0,.14-.609c.011-2.562.01-5.125.013-7.687Z" transform="translate(1175.595 112.762)" fill="#797979"/>
      <path id="Path_276750" data-name="Path 276750" d="M-1053.016-106.939q0-1.294-.006-2.589a1.178,1.178,0,0,1,.2-.063c.742-.09.744-.089.742-.822q-.006-3.454-.013-6.908a.657.657,0,0,1,.653-.663c.457-.022.638.3.746.685q0,3.558,0,7.117c0,.652,0,.652.643.656.158,0,.316.007.474.01,0,.719-.005,1.439.009,2.158.006.316-.117.436-.432.432C-1051-106.94-1052.009-106.936-1053.016-106.939Z" transform="translate(1068.752 117.986)" fill="#626262"/>
      <path id="Path_276751" data-name="Path 276751" d="M-1154.723-109.524a2.547,2.547,0,0,1-.557.549c-.337.171-.649-.067-.835-.555q0-3.891,0-7.782a.665.665,0,0,1,.651-.669c.453-.023.655.277.743.679Z" transform="translate(1162.937 117.983)" fill="#636363"/>
      <path id="Path_276752" data-name="Path 276752" d="M-1097.844-117.494c0,2.562,0,5.125-.013,7.687a1.105,1.105,0,0,1-.14.609c-.344.477-.916.3-1.161-.339l0-7.784a.659.659,0,0,1,.614-.663A.609.609,0,0,1-1097.844-117.494Z" transform="translate(1110.904 117.989)" fill="#636363"/>
      <path id="Path_276753" data-name="Path 276753" d="M-1176.317,108.663a6.916,6.916,0,0,1-1.357-3.313,7.223,7.223,0,0,1,2-6.223,7.4,7.4,0,0,1,9.216-1.246c.245.146.471.324.706.488a1.439,1.439,0,0,0,.086.393,7.2,7.2,0,0,1,.932,3.512,7.312,7.312,0,0,1-2.326,5.485,7.328,7.328,0,0,1-6.4,1.963A9.41,9.41,0,0,1-1176.317,108.663Zm5.353-2.172h.006a8.06,8.06,0,0,0,.019,1.249.912.912,0,0,0,.411.582.675.675,0,0,0,.623-.079,1.049,1.049,0,0,0,.3-.668c.038-.7.036-1.41.007-2.114-.017-.408.134-.518.521-.5.733.025,1.468.015,2.2,0a.649.649,0,0,0,.693-.622.662.662,0,0,0-.641-.722,3.328,3.328,0,0,0-.431-.019c-.619,0-1.238-.021-1.856.006-.388.017-.5-.13-.486-.5.023-.69.013-1.381,0-2.072-.009-.552-.272-.854-.708-.844s-.653.3-.657.838c-.005.7-.019,1.411.005,2.115.013.368-.128.471-.476.461-.69-.02-1.381-.012-2.072,0-.578.009-.906.278-.893.709s.323.653.888.656c.691,0,1.382.022,2.072-.007.392-.016.508.131.48.5C-1170.985,105.8-1170.964,106.146-1170.964,106.491Z" transform="translate(1182.703 -78.244)" fill="#ef2d57"/>
      <path id="Path_276754" data-name="Path 276754" d="M-1161.125,125.124a9.406,9.406,0,0,0,2.86,1.059,7.328,7.328,0,0,0,6.4-1.963,7.311,7.311,0,0,0,2.326-5.485,7.207,7.207,0,0,0-.932-3.512,1.43,1.43,0,0,1-.086-.393,7,7,0,0,1,2.917,5.53,7.231,7.231,0,0,1-4.343,7.185,7.43,7.43,0,0,1-8.976-2.165C-1161.026,125.3-1161.072,125.209-1161.125,125.124Z" transform="translate(1167.511 -94.705)" fill="#ef2d57"/>
      <path id="Path_276755" data-name="Path 276755" d="M-960.682,187.494c.1-.106.189-.217.29-.318q5.859-5.861,11.72-11.72c.112-.112.233-.214.35-.32l.164-.164c.69.022.929.259.957.95-.186.2-.367.4-.56.6q-5.78,5.783-11.562,11.565c-.142.142-.272.3-.407.445l-.108.092c-.113,0-.227,0-.34,0C-960.809,188.586-961.019,188.118-960.682,187.494Z" transform="translate(984.54 -149.647)" fill="#e69326"/>
      <path id="Path_276756" data-name="Path 276756" d="M-947.984,198.571c.135-.148.265-.3.407-.445q5.78-5.783,11.562-11.565c.193-.193.373-.4.56-.6A8.806,8.806,0,0,1-933.3,192.3a8.654,8.654,0,0,1-1.716,4.761c-.093.127-.178.261-.266.392l-.5.6c-.569.439-1.108.924-1.712,1.308A8.846,8.846,0,0,1-947.984,198.571Zm1.371-.028a8.752,8.752,0,0,0,9.321-2.512,8.537,8.537,0,0,0,1.8-8.61Z" transform="translate(972.794 -159.69)" fill="#d9bc4a"/>
      <path id="Path_276757" data-name="Path 276757" d="M-1135.5,142.146c0-.345-.021-.692.006-1.035.028-.369-.088-.516-.48-.5-.689.028-1.381.01-2.072.007-.565,0-.876-.235-.888-.656s.315-.7.893-.709c.69-.01,1.382-.018,2.072,0,.348.01.488-.093.476-.461-.024-.7-.01-1.41-.005-2.115,0-.54.236-.829.657-.838s.7.292.708.844c.011.69.021,1.382,0,2.072-.012.37.1.517.486.5.617-.027,1.237-.008,1.856-.006a3.324,3.324,0,0,1,.431.019.662.662,0,0,1,.641.722.649.649,0,0,1-.693.622c-.734.014-1.468.024-2.2,0-.387-.013-.538.1-.521.5.029.7.031,1.411-.007,2.114a1.049,1.049,0,0,1-.3.668.675.675,0,0,1-.623.079.913.913,0,0,1-.411-.582,8.06,8.06,0,0,1-.019-1.249Z" transform="translate(1147.237 -113.899)" fill="#fefefe"/>
      <path id="Path_276758" data-name="Path 276758" d="M-932.122,213.947-921,202.825a8.537,8.537,0,0,1-1.8,8.61A8.752,8.752,0,0,1-932.122,213.947Z" transform="translate(958.303 -175.093)" fill="#fcda55"/>
    </g>
    <g id="Group_4226" data-name="Group 4226" transform="translate(1902 334)">
      <path id="Path_276759" data-name="Path 276759" d="M-1169.388-21.795c2.074.011,4.148.027,6.222.03,3.15.006,6.3-.014,9.448.009a2.934,2.934,0,0,1,3.078,2.994,2.933,2.933,0,0,1-3.078,2.995c-5.4.016-10.8.074-16.2-.019a18.013,18.013,0,0,1-17.042-14.753c-.064-.382-.194-.753-.293-1.13V-76.7c.088-.3.2-.6.26-.906,1.5-7.352,5.848-12.122,12.993-14.353.869-.271,1.771-.437,2.658-.651h44.879a2.784,2.784,0,0,0,.47.156,18.046,18.046,0,0,1,15.209,14.183c.125.574.254,1.147.382,1.721v17.562a3.283,3.283,0,0,1-1.892,2.182,2.978,2.978,0,0,1-4.1-2.862c-.031-3.3.006-6.6-.015-9.9a61.371,61.371,0,0,0-.154-6.664,11.846,11.846,0,0,0-11.8-10.367q-18.9-.032-37.8-.006c-1.074,0-2.149.019-3.223.029-.274,0-.551-.021-.823,0a12.005,12.005,0,0,0-11.029,11.941q-.027,20.445.008,40.891a12.756,12.756,0,0,0,.308,2.674C-1179.76-25.732-1174.573-21.581-1169.388-21.795Z" transform="translate(1187.25 92.61)"/>
      <path id="Path_276760" data-name="Path 276760" d="M-964.806,111.432c-.2.866-.39,1.733-.6,2.6A20.131,20.131,0,0,1-985,129.411c-11.02-.254-18.465-7.281-19.964-16.937-1.313-8.457,2.334-16.936,9.887-20.921,13.578-7.163,27.481,1.273,29.9,13.789q.183.944.368,1.888Zm-20.414-16.489c-8.983.352-14.008,6.99-14.026,14.2-.019,7.192,4.962,13.914,14.025,14.276a24.009,24.009,0,0,0,2.606-.2,14.243,14.243,0,0,0,11.643-16.2A14.28,14.28,0,0,0-985.221,94.943Z" transform="translate(1050.663 -48.791)"/>
      <path id="Path_276762" data-name="Path 276762" d="M-935.834,118.966a14.28,14.28,0,0,1,14.247,12.073,14.243,14.243,0,0,1-11.643,16.2,24.007,24.007,0,0,1-2.606.2,6.552,6.552,0,0,1-1.053-.554,17.218,17.218,0,0,1-6.533-10.919,3.208,3.208,0,0,1,.059-.8,3.131,3.131,0,0,0,2.405,1.035c.55.012,1.1.017,1.65,0,.448-.012.634.184.623.628-.014.6-.019,1.2.007,1.8a2.95,2.95,0,0,0,2.964,2.964,2.972,2.972,0,0,0,3.026-2.986c.019-.449,0-.9.006-1.35,0-1.05,0-1.05,1.019-1.055.45,0,.9.011,1.35-.006a2.97,2.97,0,0,0,3.021-2.991,2.952,2.952,0,0,0-3-3c-.6-.022-1.2-.016-1.8-.007-.409.006-.592-.174-.587-.585.007-.65.026-1.3-.017-1.95a2.952,2.952,0,0,0-2.993-2.855,2.945,2.945,0,0,0-2.982,2.865c-.031.474-.011.95-.013,1.425,0,1.1,0,1.128-1.123,1.094-1.355-.042-2.664.012-3.677,1.094A16.1,16.1,0,0,1-939.9,122.5,10.839,10.839,0,0,1-935.834,118.966Z" transform="translate(1001.276 -72.814)" fill="#fefefe"/>
      <path id="Path_276763" data-name="Path 276763" d="M-968.843,135.2a3.208,3.208,0,0,0-.059.8,17.218,17.218,0,0,0,6.533,10.919,6.552,6.552,0,0,0,1.053.554c-9.062-.362-14.043-7.084-14.025-14.276.019-7.209,5.043-13.847,14.026-14.2a10.839,10.839,0,0,0-4.063,3.536,16.1,16.1,0,0,0-3.588,8.785A3.211,3.211,0,0,0-968.843,135.2Z" transform="translate(1026.756 -72.848)" fill="#fff"/>
      <path id="Path_276764" data-name="Path 276764" d="M-945.729,158.558a3.211,3.211,0,0,1-.122-3.88c1.013-1.082,2.322-1.135,3.677-1.093,1.119.035,1.12.005,1.123-1.094,0-.475-.018-.952.013-1.425a2.945,2.945,0,0,1,2.982-2.865,2.952,2.952,0,0,1,2.993,2.855c.043.648.024,1.3.017,1.95,0,.411.178.591.587.585.6-.009,1.2-.014,1.8.007a2.952,2.952,0,0,1,3,3,2.97,2.97,0,0,1-3.021,2.991c-.45.016-.9,0-1.35.006-1.015,0-1.016,0-1.019,1.055,0,.45.013.9-.006,1.35a2.972,2.972,0,0,1-3.026,2.986,2.95,2.95,0,0,1-2.964-2.964c-.026-.6-.021-1.2-.007-1.8.01-.444-.176-.64-.623-.628-.55.015-1.1.009-1.651,0A3.131,3.131,0,0,1-945.729,158.558Z" transform="translate(1003.641 -96.205)" fill="#22cfc8"/>
    </g>
  </g>
</svg>
