<?xml version="1.0" ?><svg data-name="Layer 1" id="Layer_1" viewBox="0 0 24 24" xmlns="http://www.w3.org/2000/svg"><title/><circle cx="10.5" cy="13" r="1"/><circle cx="14.5" cy="13" r="1"/><circle cx="18.5" cy="13" r="1"/><path d="M21.2,6H19V2.86A1.86,1.86,0,0,0,17.14,1H2.86A1.86,1.86,0,0,0,1,2.86V14.14A1.86,1.86,0,0,0,2.86,16H6v2.2A1.81,1.81,0,0,0,7.8,20h7.48L16,22.27a1.41,1.41,0,0,0,1.12,1l.25,0a1.39,1.39,0,0,0,1.2-.68L19.52,20H21.2A1.81,1.81,0,0,0,23,18.2V7.8A1.81,1.81,0,0,0,21.2,6ZM3,14V3H17V6H7.8A1.81,1.81,0,0,0,6,7.8V14Zm18,4H18.08l-.68,2-.68-2H8V8H21Z"/></svg>