<svg xmlns="http://www.w3.org/2000/svg" width="195.602" height="195.616" viewBox="0 0 195.602 195.616">
  <g id="Group_4171" data-name="Group 4171" transform="translate(1833.936 310.931)">
    <path id="Path_276626" data-name="Path 276626" d="M-1784.464-136.168c.647-.036,1.294-.061,1.94-.109,2.772-.206,5.54-.46,8.315-.616a13.108,13.108,0,0,1,5.7.954,16.743,16.743,0,0,1,6.39,4.966c2.105,2.459,4.108,5.014,6.314,7.379a25.39,25.39,0,0,0,19.78,8.275,26.22,26.22,0,0,0,18.6-7.72c2.442-2.429,4.59-5.154,6.874-7.743a17.524,17.524,0,0,1,5.555-4.624,17.532,17.532,0,0,1,9.115-1.2c3.549.281,7.1.723,10.653.7a25.027,25.027,0,0,0,18.531-8.329,26.531,26.531,0,0,0,7.5-19.587c-.1-3.476-.443-6.946-.689-10.418a13.975,13.975,0,0,1,5.03-12.077c2.478-2.166,5.083-4.19,7.519-6.4,7.412-6.729,10.17-15.118,8.557-24.938a26.685,26.685,0,0,0-8.754-15.674c-2.233-2.034-4.566-3.96-6.878-5.907a14.192,14.192,0,0,1-5.287-12.529c.209-2.853.514-5.7.74-8.549.539-6.782-.88-13.052-5.043-18.546a27,27,0,0,0-19.3-11.048,59.576,59.576,0,0,0-11.954.423c-3.055.283-6.081.323-8.976-1.02a17.828,17.828,0,0,1-5.983-4.856c-2.105-2.46-4.1-5.023-6.317-7.377a25.4,25.4,0,0,0-19.978-8.173,26.8,26.8,0,0,0-19.506,8.869c-2.166,2.331-4.191,4.794-6.245,7.226a14.117,14.117,0,0,1-12.375,5.272c-2.934-.2-5.859-.522-8.792-.753a27.142,27.142,0,0,0-11.346,1.278,27.21,27.21,0,0,0-14.9,12.659c-2.988,5.268-3.747,10.966-3.3,16.9.216,2.879.5,5.755.617,8.638a12.535,12.535,0,0,1-3.169,8.941,35.97,35.97,0,0,1-3.482,3.373c-2.188,1.923-4.506,3.7-6.637,5.686-8.428,7.846-10.223,19.542-6.328,29.567a28.281,28.281,0,0,0,7.879,10.929c2.3,2.041,4.689,3.983,6.986,6.028a12.932,12.932,0,0,1,4.548,9.924,65.294,65.294,0,0,1-.432,6.941c-.41,3.988-.708,7.974.167,11.928,1.793,8.106,6.526,14.027,13.7,18.049A27.176,27.176,0,0,0-1784.464-136.168Z" fill="#fff"/>
    <path id="Path_276627" data-name="Path 276627" d="M-1784.464-136.168a27.176,27.176,0,0,1-14.664-3.29c-7.172-4.022-11.9-9.943-13.7-18.049-.875-3.955-.576-7.94-.167-11.928a65.294,65.294,0,0,0,.432-6.941,12.932,12.932,0,0,0-4.548-9.924c-2.3-2.045-4.685-3.987-6.986-6.028a28.281,28.281,0,0,1-7.879-10.929c-3.894-10.025-2.1-21.722,6.328-29.567,2.13-1.983,4.448-3.763,6.637-5.686a35.97,35.97,0,0,0,3.482-3.373,12.535,12.535,0,0,0,3.169-8.941c-.115-2.883-.4-5.759-.617-8.638-.445-5.936.314-11.635,3.3-16.9a27.21,27.21,0,0,1,14.9-12.659,27.142,27.142,0,0,1,11.346-1.278c2.932.231,5.858.549,8.792.753a14.117,14.117,0,0,0,12.375-5.272c2.054-2.433,4.079-4.9,6.245-7.226a26.8,26.8,0,0,1,19.506-8.869,25.4,25.4,0,0,1,19.978,8.173c2.218,2.353,4.211,4.917,6.317,7.377a17.828,17.828,0,0,0,5.983,4.856c2.894,1.342,5.921,1.3,8.976,1.02a59.576,59.576,0,0,1,11.954-.423,27,27,0,0,1,19.3,11.048c4.163,5.494,5.582,11.764,5.043,18.546-.227,2.851-.532,5.7-.74,8.549a14.192,14.192,0,0,0,5.287,12.529c2.312,1.946,4.645,3.872,6.878,5.907a26.685,26.685,0,0,1,8.754,15.674c1.613,9.82-1.145,18.209-8.557,24.938-2.436,2.211-5.041,4.235-7.519,6.4a13.975,13.975,0,0,0-5.03,12.077c.246,3.472.584,6.941.689,10.418a26.531,26.531,0,0,1-7.5,19.587,25.027,25.027,0,0,1-18.531,8.329c-3.549.027-7.1-.416-10.653-.7a17.532,17.532,0,0,0-9.115,1.2,17.524,17.524,0,0,0-5.555,4.624c-2.283,2.589-4.431,5.314-6.874,7.743a26.22,26.22,0,0,1-18.6,7.72,25.39,25.39,0,0,1-19.78-8.275c-2.205-2.365-4.208-4.92-6.314-7.379a16.743,16.743,0,0,0-6.39-4.966,13.108,13.108,0,0,0-5.7-.954c-2.774.156-5.543.41-8.315.616C-1783.17-136.23-1783.817-136.2-1784.464-136.168Zm121.495-126.906c-.105-1.5-.093-3.1-.349-4.666a21.957,21.957,0,0,0-20.671-18.091c-3.467-.083-6.946.323-10.418.535a26.39,26.39,0,0,1-8.528-.471,21.257,21.257,0,0,1-10.8-7.2c-2.13-2.509-4.175-5.1-6.405-7.512a20.359,20.359,0,0,0-16.091-6.68,22.161,22.161,0,0,0-16.569,7.812c-2.149,2.421-4.182,4.945-6.346,7.352a19.026,19.026,0,0,1-15.141,6.632c-2.638-.057-5.273-.35-7.906-.581a33.635,33.635,0,0,0-8.56.008,22.026,22.026,0,0,0-18.089,20.779c-.071,2.822.208,5.657.407,8.481a35.7,35.7,0,0,1-.006,8.882,19.887,19.887,0,0,1-6.817,11.646c-2.518,2.2-5.151,4.274-7.653,6.493a20.677,20.677,0,0,0-7.243,16.5,21.767,21.767,0,0,0,7.193,16.1c2.335,2.162,4.815,4.165,7.214,6.257a21.8,21.8,0,0,1,5.434,6.77c1.917,3.894,2.211,8.012,1.863,12.246-.274,3.333-.658,6.668-.708,10.006a20.067,20.067,0,0,0,6.98,15.54,21.826,21.826,0,0,0,16.314,5.876c3.53-.165,7.05-.53,10.579-.7a19.032,19.032,0,0,1,15.535,6.453c2.3,2.5,4.4,5.186,6.618,7.757a21.063,21.063,0,0,0,18.3,7.682,21.36,21.36,0,0,0,14.344-6.674c2.365-2.474,4.533-5.137,6.765-7.736a19.687,19.687,0,0,1,16.548-7.309c2.4.109,4.786.369,7.176.585a32.934,32.934,0,0,0,8.559-.02,21.313,21.313,0,0,0,14.458-9.635c3.319-4.9,4.019-10.369,3.532-16.111-.253-2.983-.551-5.972-.6-8.962a18.233,18.233,0,0,1,5.729-13.726c2.172-2.128,4.578-4.022,6.911-5.982a26.425,26.425,0,0,0,6.924-7.939,22.337,22.337,0,0,0-2.812-24.437,58.935,58.935,0,0,0-7.629-6.989,26.883,26.883,0,0,1-6.368-6.942c-2.421-4.168-2.925-8.688-2.489-13.384C-1663.524-257.278-1663.249-260.124-1662.969-263.074Z"/>
    <path id="Path_276628" data-name="Path 276628" d="M-1643.456-243.6c-.28,2.951-.555,5.8-.82,8.644-.436,4.7.068,9.216,2.489,13.384a26.886,26.886,0,0,0,6.368,6.942,58.929,58.929,0,0,1,7.629,6.989,22.336,22.336,0,0,1,2.812,24.437,26.427,26.427,0,0,1-6.924,7.939c-2.333,1.96-4.739,3.854-6.911,5.982a18.234,18.234,0,0,0-5.729,13.726c.047,2.99.345,5.979.6,8.962.487,5.742-.213,11.209-3.532,16.111a21.314,21.314,0,0,1-14.458,9.635,32.933,32.933,0,0,1-8.559.02c-2.391-.217-4.78-.477-7.176-.585a19.686,19.686,0,0,0-16.548,7.309c-2.232,2.6-4.4,5.262-6.765,7.736a21.36,21.36,0,0,1-14.344,6.674,21.063,21.063,0,0,1-18.3-7.682c-2.223-2.572-4.316-5.261-6.618-7.757a19.032,19.032,0,0,0-15.535-6.453c-3.53.174-7.05.539-10.579.7a21.826,21.826,0,0,1-16.314-5.876,20.067,20.067,0,0,1-6.98-15.54c.049-3.338.434-6.673.708-10.006.348-4.234.054-8.351-1.863-12.246a21.8,21.8,0,0,0-5.434-6.77c-2.4-2.092-4.88-4.1-7.214-6.257a21.767,21.767,0,0,1-7.193-16.1,20.677,20.677,0,0,1,7.243-16.5c2.5-2.219,5.135-4.291,7.653-6.493a19.886,19.886,0,0,0,6.817-11.646,35.7,35.7,0,0,0,.006-8.882c-.2-2.824-.478-5.659-.407-8.481a22.026,22.026,0,0,1,18.089-20.779,33.636,33.636,0,0,1,8.56-.008c2.632.232,5.267.524,7.906.581a19.026,19.026,0,0,0,15.141-6.632c2.164-2.407,4.2-4.932,6.346-7.352a22.161,22.161,0,0,1,16.569-7.812,20.359,20.359,0,0,1,16.091,6.68c2.23,2.417,4.276,5,6.405,7.512a21.256,21.256,0,0,0,10.8,7.2,26.391,26.391,0,0,0,8.528.471c3.472-.213,6.951-.619,10.418-.535a21.958,21.958,0,0,1,20.672,18.091C-1643.549-246.7-1643.562-245.1-1643.456-243.6Zm-143.412,100.453c-.224,8.536,5.24,15.158,12.116,18.006,3.524,1.459,7.2,1.494,10.914,1.229,3.067-.218,6.134-.547,9.2-.593a21.351,21.351,0,0,1,14.093,5.08c2.9,2.353,5.094,5.344,7.444,8.194a26.464,26.464,0,0,0,6.174,5.9A19.14,19.14,0,0,0-1703.491-108c2.367-2.351,4.468-4.975,6.632-7.523a23.762,23.762,0,0,1,12.216-8.086,31.791,31.791,0,0,1,10.938-.485,89.472,89.472,0,0,0,9.038.565c9.342-.139,16.6-8.095,17.708-16.239.478-3.513,0-7-.229-10.5a50.117,50.117,0,0,1-.134-7.752,21.774,21.774,0,0,1,7.668-14.536c2.475-2.208,5.087-4.263,7.584-6.447a17.442,17.442,0,0,0,5.708-8.478c2.125-7.753.388-14.543-5.437-20.134-2.371-2.276-4.973-4.31-7.451-6.476a22.425,22.425,0,0,1-8.036-18.642c.126-3.016.509-6.021.748-9.033a21.444,21.444,0,0,0-.727-8.575,19.082,19.082,0,0,0-17.3-13.077,92.6,92.6,0,0,0-10.415.553c-5.359.444-10.44-.284-15.1-3.142a32.639,32.639,0,0,1-7.975-7.508c-1.522-1.856-3.044-3.72-4.677-5.476a17.7,17.7,0,0,0-14.237-5.761,19.336,19.336,0,0,0-14.221,6.911c-1.978,2.248-3.885,4.559-5.849,6.82a22.66,22.66,0,0,1-12.124,7.483,32.242,32.242,0,0,1-10.309.344c-2.981-.26-5.973-.606-8.957-.576-9.423.095-16.7,8.074-17.825,16.206-.488,3.54,0,7.053.23,10.579a49.651,49.651,0,0,1,.121,7.751,21.865,21.865,0,0,1-7.748,14.581c-2.377,2.116-4.884,4.087-7.29,6.171a17.738,17.738,0,0,0-5.529,7.564c-2.609,7.645-1.3,14.572,4.3,20.452a82.977,82.977,0,0,0,7.338,6.473c6.8,5.631,9.664,12.833,8.8,21.579C-1786.338-149.329-1786.591-146.237-1786.868-143.148Z" transform="translate(-19.513 -19.474)" fill="#fff"/>
    <path id="Path_276629" data-name="Path 276629" d="M-1771.913-128.034c.277-3.09.53-6.182.835-9.269.864-8.746-2-15.947-8.8-21.579a82.976,82.976,0,0,1-7.338-6.473c-5.6-5.88-6.908-12.807-4.3-20.452a17.735,17.735,0,0,1,5.529-7.564c2.406-2.085,4.912-4.055,7.29-6.171a21.864,21.864,0,0,0,7.748-14.581,49.606,49.606,0,0,0-.121-7.751c-.229-3.526-.717-7.04-.229-10.58,1.121-8.133,8.4-16.112,17.825-16.206,2.984-.03,5.976.316,8.957.576a32.244,32.244,0,0,0,10.309-.344,22.66,22.66,0,0,0,12.124-7.483c1.963-2.261,3.87-4.572,5.849-6.82a19.335,19.335,0,0,1,14.221-6.911,17.7,17.7,0,0,1,14.237,5.761c1.634,1.756,3.155,3.62,4.677,5.476a32.639,32.639,0,0,0,7.975,7.508c4.66,2.857,9.741,3.586,15.1,3.142a92.587,92.587,0,0,1,10.414-.553,19.082,19.082,0,0,1,17.3,13.077,21.444,21.444,0,0,1,.727,8.575c-.239,3.012-.623,6.017-.748,9.033a22.426,22.426,0,0,0,8.036,18.642c2.478,2.166,5.08,4.2,7.451,6.476,5.825,5.591,7.562,12.381,5.437,20.134a17.442,17.442,0,0,1-5.708,8.478c-2.5,2.184-5.109,4.238-7.584,6.447a21.775,21.775,0,0,0-7.668,14.536,50.117,50.117,0,0,0,.134,7.752c.224,3.5.707,6.986.229,10.5-1.109,8.144-8.366,16.1-17.708,16.239a89.47,89.47,0,0,1-9.038-.565,31.792,31.792,0,0,0-10.938.485,23.763,23.763,0,0,0-12.216,8.086c-2.164,2.548-4.265,5.173-6.632,7.523a19.14,19.14,0,0,1-23.431,2.677,26.465,26.465,0,0,1-6.174-5.9c-2.35-2.85-4.549-5.841-7.444-8.194a21.35,21.35,0,0,0-14.093-5.08c-3.071.046-6.137.375-9.2.593-3.716.265-7.391.23-10.915-1.229C-1766.672-112.876-1772.137-119.5-1771.913-128.034Zm141.439-50.5a71.874,71.874,0,0,0-2.916-20.3,70.315,70.315,0,0,0-14.675-26.942c-13.1-14.938-29.565-23.274-49.428-24.621a67.226,67.226,0,0,0-30.494,4.994,71.036,71.036,0,0,0-35.532,31.394,70.6,70.6,0,0,0-9.136,30.851,71.9,71.9,0,0,0,4.1,29.133,71.081,71.081,0,0,0,13.486,22.972,70.4,70.4,0,0,0,34.786,22.014,69.075,69.075,0,0,0,32.385,1.153,68.467,68.467,0,0,0,32.628-16.138C-1638.977-138.514-1630.886-156.8-1630.474-178.538Z" transform="translate(-34.468 -34.587)"/>
    <path id="Path_276630" data-name="Path 276630" d="M-1527.009-79.765c-.412,21.735-8.5,40.024-24.8,54.505a68.468,68.468,0,0,1-32.628,16.138,69.076,69.076,0,0,1-32.385-1.153,70.4,70.4,0,0,1-34.786-22.014,71.079,71.079,0,0,1-13.486-22.972,71.894,71.894,0,0,1-4.1-29.133,70.6,70.6,0,0,1,9.136-30.851,71.035,71.035,0,0,1,35.532-31.394,67.226,67.226,0,0,1,30.494-4.994c19.862,1.347,36.325,9.683,49.428,24.621a70.315,70.315,0,0,1,14.675,26.942A71.874,71.874,0,0,1-1527.009-79.765Zm-72.359,69.106a72.879,72.879,0,0,0,13.79-1.2A66.45,66.45,0,0,0-1552.3-28.713a68.27,68.27,0,0,0,22-43.956,68.158,68.158,0,0,0-2.945-28.376,65.831,65.831,0,0,0-13.414-23.9c-15.648-17.635-35.238-25.637-58.778-23.483a62.8,62.8,0,0,0-30.192,10.973c-18.056,12.41-28.274,29.606-30.534,51.409a66.6,66.6,0,0,0,3.417,28.719,68.145,68.145,0,0,0,22.113,31.609A66.048,66.048,0,0,0-1599.368-10.659Z" transform="translate(-137.933 -133.361)" fill="#fff"/>
    <path id="Path_276631" data-name="Path 276631" d="M-1584.7,4.95a66.047,66.047,0,0,1-41.261-15.064,68.146,68.146,0,0,1-22.113-31.609,66.6,66.6,0,0,1-3.417-28.719c2.26-21.8,12.478-39,30.534-51.409a62.8,62.8,0,0,1,30.193-10.973c23.54-2.155,43.13,5.848,58.778,23.483a65.825,65.825,0,0,1,13.414,23.9,68.154,68.154,0,0,1,2.945,28.376,68.27,68.27,0,0,1-22,43.956,66.449,66.449,0,0,1-33.279,16.849A72.879,72.879,0,0,1-1584.7,4.95Zm-2.493-65.637c-.093-.271-.173-.462-.225-.659-.758-2.9-1.5-5.795-2.281-8.685-.076-.284-.339-.722-.539-.735-1.095-.072-2.2-.035-3.406-.035.126.439.21.772.318,1.1q1.8,5.412,3.61,10.821c.264.786.362,1.854.92,2.251s1.609.1,2.439.164c.575.044.806-.179.932-.726.728-3.153,1.487-6.3,2.237-9.447.049-.2.111-.406.214-.78.1.358.156.512.192.668.734,3.151,1.485,6.3,2.184,9.457.146.657.409.9,1.083.829a8.622,8.622,0,0,1,1.779,0c.638.062.876-.214,1.062-.794.994-3.108,2.036-6.2,3.057-9.3.453-1.374.893-2.752,1.376-4.242-1.1,0-2.064.027-3.028-.011-.49-.02-.643.2-.752.624-.729,2.848-1.479,5.69-2.225,8.532-.083.315-.189.623-.35,1.149-.111-.417-.162-.6-.205-.776-.713-2.935-1.437-5.867-2.128-8.807-.128-.543-.352-.765-.93-.722a14.224,14.224,0,0,1-2.184,0c-.646-.052-.877.2-1.013.814C-1585.738-66.925-1586.465-63.859-1587.2-60.687Zm9.072-59.975a3.072,3.072,0,0,0,1.827-3.417,3.52,3.52,0,0,0-2.879-2.931,9.061,9.061,0,0,0-2.076-.275c-2.536-.033-5.072.007-7.608-.032-.666-.01-.813.227-.81.84q.032,6.354,0,12.707c0,.632.175.838.819.829,2.374-.035,4.75.029,7.122-.038a12.141,12.141,0,0,0,3.02-.465,3.864,3.864,0,0,0,2.98-3.539C-1575.56-118.738-1576.432-119.9-1578.125-120.662ZM-1634.491-64.2a3.009,3.009,0,0,0,1.785-3.345,3.445,3.445,0,0,0-2.838-2.954,9.237,9.237,0,0,0-2.155-.287c-2.51-.035-5.021.011-7.53-.032-.7-.012-.844.237-.84.881.025,4.21.012,8.421.015,12.632,0,.258.031.515.045.74,3.172,0,6.247.052,9.318-.034a6.323,6.323,0,0,0,2.456-.734,3.706,3.706,0,0,0,2.123-3.552,3.253,3.253,0,0,0-2.071-3.11A2.858,2.858,0,0,1-1634.491-64.2Zm58.878,63.986.091-.238a2.422,2.422,0,0,1-.848-2.236c-.005-.458.026-.917.018-1.375-.023-1.356-.335-2.541-1.953-2.95.2-.124.306-.2.42-.259a3.528,3.528,0,0,0,1.111-5.594,5.235,5.235,0,0,0-4.3-1.676c-2.617-.026-5.234-.01-7.851-.006-.233,0-.467.037-.659.053-.047.1-.068.121-.068.145-.018,4.557-.038,9.115-.032,13.672a.612.612,0,0,0,.391.449c.988.04,1.978.021,3.076.021V-5.793c1.46,0,2.81-.04,4.156.01,1.682.062,2.046.481,2.142,2.163.054.939.145,1.879.273,2.81.029.214.275.561.432.567C-1578.011-.2-1576.812-.217-1575.613-.217Zm42.321-70.549v14.231h3.418v-5.45c1.659,0,3.221-.061,4.774.021,1.04.055,1.393.508,1.5,1.561.055.536.047,1.078.082,1.616.151,2.3.153,2.3,2.411,2.305h1.862l.11-.215c-1.006-.676-.875-1.672-.867-2.633.014-1.6.145-3.249-1.858-3.995.207-.127.293-.185.383-.235a3.539,3.539,0,0,0,1.122-5.5,4.439,4.439,0,0,0-3.463-1.685C-1526.942-70.822-1530.069-70.766-1533.293-70.766Zm-94.512.009c-.016.311-.042.6-.043.889,0,1.619,0,3.237,0,4.856,0,2.59-.005,5.179,0,7.769,0,.319-.136.76.439.762,1.018,0,2.035,0,3.141,0V-62.8h6.6v6.242h3.433V-70.73h-3.512v5.3h-6.531v-5.328Zm38.311-38.568V-95.1h3.563v-6.263h6.537V-95.1h3.436v-14.207h-3.415c-.015.3-.038.566-.039.829,0,1.214-.034,2.429.009,3.642.023.652-.155.913-.853.885-1.266-.052-2.535-.016-3.8-.016h-1.93v-5.355Zm-.625,66.994a9.224,9.224,0,0,0,.732,2.108,4.4,4.4,0,0,0,1.649,1.6,10.608,10.608,0,0,0,9.233.121,3.8,3.8,0,0,0,2.323-4.292c-.194-1.818-1.493-2.5-3.025-2.934-.1-.03-.207-.061-.313-.084-1.842-.412-3.686-.814-5.525-1.24-.721-.167-1.347-.492-1.388-1.352a1.34,1.34,0,0,1,1.247-1.458,16.707,16.707,0,0,1,3.432-.043,1.954,1.954,0,0,1,1.608,1.436c.064.174.229.437.356.441,1.01.036,2.022.02,3.025.02a4.505,4.505,0,0,0-3.175-4.168,11.637,11.637,0,0,0-5.365-.33,5.787,5.787,0,0,0-3.325,1.529,3.7,3.7,0,0,0,1.064,6.051,13.416,13.416,0,0,0,2.149.7c1.569.386,3.154.711,4.726,1.087.617.147,1.09.467,1.095,1.206a1.364,1.364,0,0,1-1.05,1.455,11.772,11.772,0,0,1-2.537.41,3.077,3.077,0,0,1-3.524-2.258Zm33.813-24.2a4.538,4.538,0,0,0-2.649-3.9,9.518,9.518,0,0,0-5.952-.558,7.359,7.359,0,0,0-3.075,1.285,3.628,3.628,0,0,0,.7,6.188,18.623,18.623,0,0,0,3.239.98c1.149.294,2.322.49,3.472.778.692.173,1.363.421,1.35,1.35a1.487,1.487,0,0,1-1.328,1.507,13.035,13.035,0,0,1-2.8.254c-1.7-.029-2.4-.6-2.976-2.213h-3.261a3.912,3.912,0,0,0,2.053,3.637,10.288,10.288,0,0,0,6.041,1.111,7.321,7.321,0,0,0,4.479-1.656,3.685,3.685,0,0,0-.895-6.154,17.812,17.812,0,0,0-2.323-.689c-1.522-.361-3.056-.671-4.581-1.017a1.38,1.38,0,0,1-1.249-1.29,1.332,1.332,0,0,1,1.165-1.442,10.791,10.791,0,0,1,2.717-.24,2.391,2.391,0,0,1,2.447,1.76.525.525,0,0,0,.392.294C-1558.352-66.518-1557.361-66.53-1556.3-66.53Zm-19.051-9.137a4.449,4.449,0,0,0-.14-.551c-1.831-4.407-3.672-8.809-5.489-13.221a.825.825,0,0,0-.92-.578c-.89.025-1.783.047-2.67,0a.959.959,0,0,0-1.075.72c-1.309,3.193-2.648,6.372-3.975,9.558-.546,1.311-1.087,2.625-1.689,4.081h1.89c1.831,0,1.83,0,2.508-1.662a2.347,2.347,0,0,1,.329-.732,1.489,1.489,0,0,1,.825-.544c1.536-.052,3.077.025,4.612-.044a1.063,1.063,0,0,1,1.285.955,8.5,8.5,0,0,0,.587,1.591.744.744,0,0,0,.489.41C-1577.668-75.649-1576.544-75.667-1575.356-75.667Zm.081,56.413c-.462-1.114-.871-2.1-1.281-3.09-1.458-3.509-2.927-7.012-4.362-10.53a.947.947,0,0,0-1.075-.706,19.223,19.223,0,0,1-2.506,0,1.038,1.038,0,0,0-1.187.794c-1.258,3.1-2.561,6.172-3.846,9.257-.577,1.386-1.149,2.773-1.773,4.279,1.214,0,2.287.023,3.357-.021a.853.853,0,0,0,.55-.457,13.4,13.4,0,0,0,.736-1.793.869.869,0,0,1,1-.692c1.59.038,3.182.045,4.772,0a.812.812,0,0,1,.946.72,13.486,13.486,0,0,0,.671,1.819.732.732,0,0,0,.487.406C-1577.666-19.236-1576.541-19.254-1575.275-19.254Zm-19.358-37.229c-.325-.789-.6-1.455-.873-2.12-1.594-3.834-3.2-7.663-4.772-11.5a.951.951,0,0,0-1.073-.709,17.552,17.552,0,0,1-2.426,0,1.085,1.085,0,0,0-1.249.814c-1.514,3.692-3.066,7.368-4.6,11.051-.327.783-.638,1.572-1,2.477.443,0,.735,0,1.027,0,.862-.014,1.912.264,2.532-.132s.8-1.45,1.115-2.241a.759.759,0,0,1,.836-.563c1.511.023,3.025.063,4.532-.013.825-.041,1.24.208,1.4,1.017a7,7,0,0,0,.525,1.441c.086.19.292.458.45.463C-1597.063-56.465-1595.912-56.483-1594.634-56.483Zm57.642,0c-.5-1.2-.933-2.264-1.375-3.327-1.427-3.433-2.866-6.86-4.273-10.3a.941.941,0,0,0-1.073-.706,14,14,0,0,1-2.343,0c-.791-.079-1.121.263-1.4.957-1.251,3.1-2.562,6.169-3.847,9.252-.555,1.331-1.1,2.668-1.7,4.133.454,0,.745,0,1.036,0,.861-.011,1.915.275,2.529-.121s.723-1.492,1.138-2.236a1.171,1.171,0,0,1,.815-.537c1.481-.058,2.968.023,4.446-.059.881-.049,1.343.225,1.517,1.093a6.422,6.422,0,0,0,.494,1.365c.087.191.292.462.452.467C-1539.429-56.465-1538.28-56.483-1536.991-56.483Z" transform="translate(-152.597 -148.969)"/>
    <path id="Path_276632" data-name="Path 276632" d="M-1286.133,261.842c.732-3.171,1.459-6.238,2.135-9.316.136-.617.367-.866,1.013-.814a14.226,14.226,0,0,0,2.184,0c.578-.043.8.179.93.722.691,2.94,1.415,5.872,2.129,8.807.044.18.095.359.205.776.161-.525.267-.834.35-1.149.747-2.843,1.5-5.685,2.225-8.532.109-.427.262-.643.752-.624.964.039,1.932.011,3.028.011-.483,1.49-.923,2.868-1.376,4.242-1.021,3.1-2.063,6.191-3.057,9.3-.186.58-.423.856-1.062.794a8.622,8.622,0,0,0-1.779,0c-.674.075-.938-.172-1.083-.829-.7-3.159-1.45-6.306-2.185-9.457-.036-.157-.089-.31-.193-.668-.1.374-.165.576-.213.78-.75,3.148-1.509,6.294-2.237,9.447-.126.546-.357.77-.932.726-.83-.064-1.874.237-2.439-.164s-.656-1.465-.92-2.251q-1.817-5.407-3.61-10.821c-.108-.325-.191-.658-.318-1.1,1.209,0,2.311-.038,3.406.035.2.013.463.451.539.735.778,2.89,1.523,5.789,2.281,8.685C-1286.306,261.38-1286.227,261.571-1286.133,261.842Z" transform="translate(-453.661 -471.498)" fill="#fff"/>
    <path id="Path_276633" data-name="Path 276633" d="M-1256.483-90.4c1.693.757,2.565,1.923,2.4,3.678a3.864,3.864,0,0,1-2.98,3.539,12.14,12.14,0,0,1-3.02.465c-2.372.067-4.748,0-7.122.038-.645.01-.823-.2-.819-.829q.036-6.353,0-12.707c0-.612.144-.85.81-.84,2.536.039,5.072,0,7.608.032a9.062,9.062,0,0,1,2.076.275,3.52,3.52,0,0,1,2.879,2.931A3.072,3.072,0,0,1-1256.483-90.4Zm-8.111,1.476c0,1.13-.025,2.177.024,3.22a.721.721,0,0,0,.508.488c1.506.028,3.016.044,4.52-.027a1.82,1.82,0,0,0,1.922-1.868,1.677,1.677,0,0,0-1.786-1.788C-1261.091-88.995-1262.786-88.92-1264.594-88.92Zm.035-2.527c1.653,0,3.213.015,4.771-.012a2.539,2.539,0,0,0,.924-.271,1.255,1.255,0,0,0,.833-1.339c-.057-.659-.392-1.23-1.048-1.257-1.813-.072-3.63-.025-5.48-.025Z" transform="translate(-474.239 -179.235)" fill="#fff"/>
    <path id="Path_276634" data-name="Path 276634" d="M-1604.629,258.342a2.854,2.854,0,0,0,.308.2,3.253,3.253,0,0,1,2.071,3.11,3.707,3.707,0,0,1-2.123,3.552,6.324,6.324,0,0,1-2.456.734c-3.071.086-6.146.034-9.318.034-.014-.224-.045-.482-.045-.74,0-4.21.01-8.421-.015-12.632,0-.644.135-.893.84-.881,2.51.043,5.02,0,7.53.032a9.236,9.236,0,0,1,2.155.287,3.446,3.446,0,0,1,2.838,2.954A3.01,3.01,0,0,1-1604.629,258.342Zm-8.092,5.251c1.449,0,2.842.013,4.234-.008a5.29,5.29,0,0,0,1.349-.171,1.726,1.726,0,0,0,1.331-1.867,1.465,1.465,0,0,0-1.424-1.572c-1.809-.107-3.629-.031-5.491-.031Zm-.012-6.332c1.745,0,3.408.009,5.071-.011a1.71,1.71,0,0,0,.677-.238,1.244,1.244,0,0,0,.762-1.3c-.06-.645-.359-1.234-1.039-1.258-1.811-.065-3.625-.022-5.472-.022Z" transform="translate(-182.459 -471.514)" fill="#fff"/>
    <path id="Path_276635" data-name="Path 276635" d="M-1254.02,613.4c-1.2,0-2.4.022-3.595-.026-.157-.006-.4-.354-.432-.567-.128-.932-.219-1.871-.273-2.81-.1-1.681-.46-2.1-2.142-2.163-1.346-.05-2.7-.01-4.156-.01V613.4c-1.1,0-2.089.019-3.076-.021a.612.612,0,0,1-.391-.449c-.005-4.557.015-9.115.032-13.672,0-.024.022-.047.069-.145.192-.016.425-.053.659-.053,2.617,0,5.234-.02,7.851.006a5.235,5.235,0,0,1,4.3,1.676,3.528,3.528,0,0,1-1.111,5.594c-.114.059-.219.135-.419.259,1.617.409,1.93,1.594,1.952,2.95.008.458-.024.917-.018,1.375a2.422,2.422,0,0,0,.848,2.236Zm-10.586-8.085c.222.024.38.055.538.055,1.455,0,2.91-.007,4.365-.029a2.264,2.264,0,0,0,.706-.154,1.763,1.763,0,0,0,1.194-1.9,1.6,1.6,0,0,0-1.45-1.6c-1.765-.079-3.536-.024-5.353-.024Z" transform="translate(-474.191 -762.583)" fill="#fff"/>
    <path id="Path_276636" data-name="Path 276636" d="M-919.985,251.967c3.224,0,6.351-.055,9.475.026a4.439,4.439,0,0,1,3.463,1.685,3.539,3.539,0,0,1-1.122,5.5c-.091.05-.177.108-.383.235,2,.746,1.872,2.4,1.858,3.995-.008.961-.139,1.957.867,2.633l-.11.215H-907.8c-2.259,0-2.26,0-2.411-2.305-.035-.538-.027-1.08-.082-1.616-.109-1.053-.461-1.505-1.5-1.561-1.554-.083-3.115-.021-4.774-.021v5.45h-3.418Zm3.451,2.563v3.709c1.331,0,2.617.015,3.9-.007a6.92,6.92,0,0,0,1.6-.164,1.664,1.664,0,0,0,1.282-1.892,1.552,1.552,0,0,0-1.49-1.622C-912.982,254.47-914.729,254.53-916.534,254.53Z" transform="translate(-765.905 -471.702)" fill="#fff"/>
    <path id="Path_276637" data-name="Path 276637" d="M-1503.726,252.119h3.526v5.328h6.531v-5.3h3.512v14.172h-3.433v-6.242h-6.6v6.318c-1.106,0-2.124,0-3.141,0-.575,0-.438-.443-.439-.762-.008-2.59,0-5.179,0-7.769,0-1.619,0-3.237,0-4.856C-1503.768,252.719-1503.742,252.43-1503.726,252.119Z" transform="translate(-276.676 -471.845)" fill="#fff"/>
    <path id="Path_276638" data-name="Path 276638" d="M-1266.935,14.019h3.5v5.355h1.93c1.268,0,2.537-.036,3.8.016.7.029.876-.233.853-.885-.043-1.213-.014-2.428-.009-3.642,0-.263.024-.526.039-.829h3.415V28.242h-3.436V21.987h-6.537v6.263h-3.563Z" transform="translate(-475.155 -272.314)" fill="#fff"/>
    <path id="Path_276639" data-name="Path 276639" d="M-1270.793,374.1h3.412a3.077,3.077,0,0,0,3.524,2.258,11.772,11.772,0,0,0,2.537-.41,1.364,1.364,0,0,0,1.05-1.455c0-.739-.478-1.059-1.094-1.206-1.572-.375-3.157-.7-4.726-1.087a13.415,13.415,0,0,1-2.149-.7,3.7,3.7,0,0,1-1.064-6.051,5.786,5.786,0,0,1,3.325-1.529,11.638,11.638,0,0,1,5.365.33,4.506,4.506,0,0,1,3.175,4.169c-1,0-2.015.016-3.025-.02-.126,0-.292-.267-.356-.441a1.954,1.954,0,0,0-1.608-1.436,16.708,16.708,0,0,0-3.432.043,1.34,1.34,0,0,0-1.247,1.458c.041.86.668,1.185,1.388,1.352,1.839.426,3.683.828,5.525,1.24.105.023.209.055.313.084,1.532.438,2.83,1.116,3.024,2.934a3.8,3.8,0,0,1-2.323,4.292,10.608,10.608,0,0,1-9.233-.121,4.4,4.4,0,0,1-1.649-1.6A9.236,9.236,0,0,1-1270.793,374.1Z" transform="translate(-471.922 -565.396)" fill="#fff"/>
    <path id="Path_276640" data-name="Path 276640" d="M-1130.767,253.993c-1.056,0-2.047.012-3.038-.013a.525.525,0,0,1-.392-.294,2.391,2.391,0,0,0-2.447-1.76,10.792,10.792,0,0,0-2.717.24,1.332,1.332,0,0,0-1.164,1.442,1.38,1.38,0,0,0,1.248,1.29c1.526.347,3.06.656,4.581,1.017a17.815,17.815,0,0,1,2.323.689,3.685,3.685,0,0,1,.895,6.154,7.321,7.321,0,0,1-4.479,1.656A10.288,10.288,0,0,1-1142,263.3a3.912,3.912,0,0,1-2.053-3.637h3.261c.572,1.612,1.28,2.183,2.976,2.213a13.03,13.03,0,0,0,2.8-.254,1.486,1.486,0,0,0,1.328-1.507c.012-.93-.658-1.177-1.35-1.35-1.15-.288-2.324-.484-3.472-.778a18.619,18.619,0,0,1-3.238-.981,3.628,3.628,0,0,1-.7-6.188,7.36,7.36,0,0,1,3.075-1.285,9.518,9.518,0,0,1,5.952.558A4.538,4.538,0,0,1-1130.767,253.993Z" transform="translate(-578.136 -469.492)" fill="#fff"/>
    <path id="Path_276641" data-name="Path 276641" d="M-1262.218,147.541c-1.188,0-2.312.018-3.434-.019a.744.744,0,0,1-.489-.41,8.5,8.5,0,0,1-.587-1.591,1.063,1.063,0,0,0-1.285-.955c-1.535.069-3.076-.009-4.612.044a1.489,1.489,0,0,0-.826.544,2.35,2.35,0,0,0-.329.732c-.678,1.663-.677,1.663-2.508,1.662h-1.89c.6-1.455,1.142-2.769,1.689-4.081,1.327-3.185,2.667-6.365,3.975-9.558a.959.959,0,0,1,1.075-.72c.887.05,1.78.028,2.67,0a.825.825,0,0,1,.92.578c1.817,4.412,3.659,8.815,5.49,13.221A4.472,4.472,0,0,1-1262.218,147.541Zm-7.972-11.1-2.084,5.576h4.161Z" transform="translate(-465.735 -372.177)" fill="#fff"/>
    <path id="Path_276642" data-name="Path 276642" d="M-1262.1,495.907c-1.266,0-2.391.018-3.515-.019a.732.732,0,0,1-.487-.406,13.456,13.456,0,0,1-.671-1.819.812.812,0,0,0-.946-.72c-1.59.044-3.182.037-4.772,0a.869.869,0,0,0-1,.692,13.39,13.39,0,0,1-.736,1.793.853.853,0,0,1-.55.457c-1.07.044-2.143.021-3.357.021.624-1.506,1.2-2.893,1.773-4.279,1.285-3.084,2.588-6.161,3.846-9.257a1.038,1.038,0,0,1,1.187-.794,19.218,19.218,0,0,0,2.506,0,.947.947,0,0,1,1.075.706c1.434,3.518,2.9,7.022,4.362,10.53C-1262.967,493.805-1262.558,494.794-1262.1,495.907Zm-5.952-5.445-2.1-5.642-2.108,5.642Z" transform="translate(-465.776 -664.13)" fill="#fff"/>
    <path id="Path_276643" data-name="Path 276643" d="M-1381.443,266.035c-1.278,0-2.429.018-3.578-.021-.159-.005-.364-.273-.45-.463a6.981,6.981,0,0,1-.525-1.441c-.165-.809-.58-1.058-1.4-1.017-1.507.076-3.021.036-4.532.013a.759.759,0,0,0-.836.563c-.314.791-.51,1.854-1.115,2.241s-1.67.118-2.531.132c-.292,0-.584,0-1.027,0,.367-.905.678-1.694,1-2.477,1.536-3.683,3.088-7.359,4.6-11.051a1.085,1.085,0,0,1,1.249-.814,17.551,17.551,0,0,0,2.426,0,.951.951,0,0,1,1.073.709c1.574,3.842,3.178,7.671,4.772,11.5C-1382.039,264.579-1381.767,265.246-1381.443,266.035Zm-5.948-5.451-2.011-5.383-.189.041-1.994,5.342Z" transform="translate(-365.789 -471.487)" fill="#fff"/>
    <path id="Path_276644" data-name="Path 276644" d="M-1025.652,266.015c-1.288,0-2.438.019-3.585-.022-.159-.005-.364-.276-.452-.467a6.414,6.414,0,0,1-.494-1.365c-.174-.868-.636-1.142-1.517-1.093-1.478.082-2.965,0-4.446.059a1.17,1.17,0,0,0-.815.537c-.415.744-.534,1.847-1.138,2.236s-1.668.11-2.529.121c-.291,0-.583,0-1.036,0,.6-1.465,1.145-2.8,1.7-4.133,1.285-3.083,2.6-6.156,3.847-9.252.281-.694.611-1.036,1.4-.957a14,14,0,0,0,2.343,0,.941.941,0,0,1,1.073.706c1.407,3.441,2.846,6.868,4.273,10.3C-1026.586,263.75-1026.148,264.814-1025.652,266.015Zm-5.948-5.433-2.1-5.634-2.1,5.634Z" transform="translate(-663.936 -471.467)" fill="#fff"/>
    <path id="Path_276645" data-name="Path 276645" d="M-1246.858-46.992c1.808,0,3.5-.075,5.187.025a1.677,1.677,0,0,1,1.786,1.788,1.82,1.82,0,0,1-1.922,1.868c-1.5.07-3.013.055-4.519.027a.721.721,0,0,1-.508-.488C-1246.883-44.815-1246.858-45.862-1246.858-46.992Z" transform="translate(-491.975 -221.163)"/>
    <path id="Path_276646" data-name="Path 276646" d="M-1246.609-77.55v-2.9c1.849,0,3.667-.047,5.48.025.657.026.992.6,1.049,1.257a1.255,1.255,0,0,1-.833,1.339,2.538,2.538,0,0,1-.924.271C-1243.4-77.535-1244.956-77.55-1246.609-77.55Z" transform="translate(-492.189 -193.131)"/>
    <path id="Path_276647" data-name="Path 276647" d="M-1594.686,305.983v-3.649c1.861,0,3.681-.076,5.491.031a1.465,1.465,0,0,1,1.424,1.572,1.726,1.726,0,0,1-1.331,1.867,5.291,5.291,0,0,1-1.349.171C-1591.844,306-1593.237,305.983-1594.686,305.983Z" transform="translate(-200.495 -513.905)"/>
    <path id="Path_276648" data-name="Path 276648" d="M-1594.759,271.176v-2.833c1.847,0,3.661-.043,5.472.022.68.024.979.614,1.039,1.258a1.245,1.245,0,0,1-.762,1.3,1.711,1.711,0,0,1-.677.238C-1591.35,271.185-1593.014,271.176-1594.759,271.176Z" transform="translate(-200.434 -485.429)"/>
    <path id="Path_276649" data-name="Path 276649" d="M-1246.6,618.736v-3.644c1.817,0,3.588-.055,5.353.024a1.6,1.6,0,0,1,1.45,1.6,1.763,1.763,0,0,1-1.194,1.9,2.26,2.26,0,0,1-.706.154c-1.455.022-2.91.025-4.365.029C-1246.22,618.792-1246.378,618.76-1246.6,618.736Z" transform="translate(-492.197 -776.007)"/>
    <path id="Path_276650" data-name="Path 276650" d="M-898.678,267.779c1.8,0,3.552-.06,5.293.024a1.552,1.552,0,0,1,1.49,1.622,1.664,1.664,0,0,1-1.282,1.892,6.92,6.92,0,0,1-1.6.164c-1.285.022-2.571.007-3.9.007Z" transform="translate(-783.761 -484.952)"/>
    <path id="Path_276651" data-name="Path 276651" d="M-1239.66,153.292l2.077,5.576h-4.161Z" transform="translate(-496.266 -389.027)"/>
    <path id="Path_276652" data-name="Path 276652" d="M-1237.7,507.271h-4.212l2.108-5.642Z" transform="translate(-496.129 -680.938)"/>
    <path id="Path_276653" data-name="Path 276653" d="M-1357.09,278.74h-4.194l1.994-5.342.189-.041Z" transform="translate(-396.089 -489.643)"/>
    <path id="Path_276654" data-name="Path 276654" d="M-1001.286,277.551h-4.2l2.1-5.634Z" transform="translate(-694.251 -488.436)"/>
  </g>
</svg>
