<?xml version="1.0" standalone="no"?>
<!DOCTYPE svg PUBLIC "-//W3C//DTD SVG 20010904//EN"
 "http://www.w3.org/TR/2001/REC-SVG-20010904/DTD/svg10.dtd">
<svg version="1.0" xmlns="http://www.w3.org/2000/svg"
 width="512.000000pt" height="512.000000pt" viewBox="0 0 512.000000 512.000000"
 preserveAspectRatio="xMidYMid meet">

<g transform="translate(0.000000,512.000000) scale(0.100000,-0.100000)"
fill="#000000" stroke="none">
<path d="M3990 4330 c-347 -114 -468 -158 -450 -162 14 -4 88 -16 165 -29 77
-12 144 -25 148 -29 5 -4 -294 -285 -664 -625 -568 -521 -674 -615 -681 -599
-4 11 -41 222 -83 469 -42 248 -79 458 -83 468 -6 15 -175 -151 -904 -890
l-896 -908 108 -109 109 -110 442 450 c703 713 933 944 936 940 2 -2 40 -212
84 -467 44 -255 81 -465 83 -467 2 -2 396 357 876 798 480 441 876 798 880
793 4 -4 26 -75 50 -158 24 -82 46 -155 49 -162 3 -6 75 204 159 469 85 264
152 481 150 482 -2 2 -217 -68 -478 -154z"/>
<path d="M3837 3043 c-4 -3 -7 -546 -7 -1205 l0 -1198 320 0 320 0 0 1205 0
1205 -313 0 c-173 0 -317 -3 -320 -7z"/>
<path d="M2737 2413 c-4 -3 -7 -404 -7 -890 l0 -883 320 0 320 0 0 890 0 890
-313 0 c-173 0 -317 -3 -320 -7z"/>
<path d="M1742 1228 l3 -583 315 0 315 0 3 583 2 582 -320 0 -320 0 2 -582z"/>
<path d="M642 958 l3 -313 318 -3 317 -2 0 315 0 315 -320 0 -320 0 2 -312z"/>
</g>
</svg>
