<svg xmlns="http://www.w3.org/2000/svg" width="29.362" height="29.319" viewBox="0 0 29.362 29.319">
  <g id="reminder" transform="translate(390.447 -215.928)">
    <rect id="Rectangle_7745" data-name="Rectangle 7745" width="20" height="25" rx="2" transform="translate(-389.751 216.928)" fill="#fff"/>
    <path id="Path_286040" data-name="Path 286040" d="M-390.446,229.317q0-5.036,0-10.072a3.143,3.143,0,0,1,2.158-3.139,3.683,3.683,0,0,1,1.114-.169q7.561-.016,15.122,0a3.15,3.15,0,0,1,3.27,3.252c.012,1.634,0,3.268,0,4.9,0,.478-.253.771-.645.763s-.624-.3-.624-.758q0-2.421,0-4.842a1.916,1.916,0,0,0-2.057-2.05h-15a1.919,1.919,0,0,0-2.067,2.07q0,10.042,0,20.083a1.91,1.91,0,0,0,2.064,2.069q3.736,0,7.471,0a1.536,1.536,0,0,1,.442.045.578.578,0,0,1,.432.578.6.6,0,0,1-.428.613,1.391,1.391,0,0,1-.383.045q-3.781,0-7.561,0a3.182,3.182,0,0,1-3.263-2.664,4.445,4.445,0,0,1-.044-.774Q-390.448,234.293-390.446,229.317Z" transform="translate(0 0)" fill="#366a4b"/>
    <path id="Path_286041" data-name="Path 286041" d="M-216.587,353.913c0,.647,0,1.294,0,1.942,0,.506.208.719.718.759a1.888,1.888,0,0,1,1.817,1.974,1.9,1.9,0,0,1-1.929,1.843c-.966.017-1.932.01-2.9,0-.228,0-.339.041-.414.291a3.149,3.149,0,0,1-3.041,2.252,3.139,3.139,0,0,1-3.028-2.226c-.081-.267-.2-.323-.455-.319-.946.016-1.892.014-2.838,0a1.863,1.863,0,0,1-1.75-1.045,1.809,1.809,0,0,1,.126-1.951,1.808,1.808,0,0,1,1.423-.819c.594-.045.789-.251.79-.85,0-1.195,0-2.39,0-3.585a5.687,5.687,0,0,1,3.6-5.359.309.309,0,0,0,.228-.355c-.015-.218-.006-.438,0-.657a1.914,1.914,0,0,1,1.9-1.962,1.93,1.93,0,0,1,1.918,1.927c.008.239.012.479,0,.717a.292.292,0,0,0,.217.328,5.543,5.543,0,0,1,3.53,4.5,17.828,17.828,0,0,1,.021,2.593Zm-5.732,5.236h.956q2.675,0,5.349,0a.633.633,0,0,0,.694-.622.644.644,0,0,0-.616-.644,1.928,1.928,0,0,1-1.937-2.117c0-1.185.008-2.371,0-3.556a4.439,4.439,0,0,0-3.248-4.364.672.672,0,0,1-.574-.755c0-.408,0-.817,0-1.225,0-.465-.246-.733-.644-.727a.639.639,0,0,0-.624.721c0,.408,0,.817,0,1.225a.672.672,0,0,1-.565.76,4.457,4.457,0,0,0-3.26,4.477c0,1.215.005,2.431,0,3.646a1.876,1.876,0,0,1-1.309,1.807,3.16,3.16,0,0,1-.614.1.652.652,0,0,0-.624.64.638.638,0,0,0,.63.628c.1.006.2,0,.3,0Zm1.755,1.3h-3.526a1.834,1.834,0,0,0,1.722,1.25A1.858,1.858,0,0,0-220.564,360.453Z" transform="translate(-147.081 -117.726)" fill="#366a4b"/>
    <path id="Path_286042" data-name="Path 286042" d="M-81.528,363.743c0,.1,0,.2,0,.3a.639.639,0,0,1-.623.664.667.667,0,0,1-.648-.648,14.1,14.1,0,0,0-.344-2.109,6.7,6.7,0,0,0-2.914-3.8c-.067-.043-.136-.083-.2-.126a.643.643,0,0,1-.273-.916.644.644,0,0,1,.94-.168,8.168,8.168,0,0,1,3.8,5.067c.148.564.206,1.152.306,1.728Z" transform="translate(-279.602 -129.654)" fill="#366a4b"/>
    <path id="Path_286043" data-name="Path 286043" d="M-230.5,363.762a8.254,8.254,0,0,1,4.088-6.852.64.64,0,0,1,.918.168.644.644,0,0,1-.262.919,7.092,7.092,0,0,0-2.679,2.819,7.3,7.3,0,0,0-.8,3.243.624.624,0,0,1-.627.627.644.644,0,0,1-.636-.656C-230.506,363.941-230.5,363.851-230.5,363.762Z" transform="translate(-147.195 -129.634)" fill="#366a4b"/>
    <path id="Path_286044" data-name="Path 286044" d="M-274.07,281.159c-1.225,0-2.451.006-3.676-.006a1.066,1.066,0,0,1-.53-.142.548.548,0,0,1-.227-.632.622.622,0,0,1,.517-.48,1.074,1.074,0,0,1,.208-.01q3.72,0,7.441,0a.65.65,0,0,1,.724.487.63.63,0,0,1-.692.78C-271.56,281.162-272.815,281.159-274.07,281.159Z" transform="translate(-103.002 -58.863)" fill="#366a4b"/>
    <path id="Path_286045" data-name="Path 286045" d="M-342.409,265.886a1.892,1.892,0,0,1,1.908-1.911,1.908,1.908,0,0,1,1.912,1.916,1.931,1.931,0,0,1-1.9,1.906A1.91,1.91,0,0,1-342.409,265.886Zm2.534,0a.629.629,0,0,0-.64-.639.643.643,0,0,0-.624.631.63.63,0,0,0,.646.633A.615.615,0,0,0-339.875,265.884Z" transform="translate(-44.209 -44.218)" fill="#366a4b"/>
    <path id="Path_286046" data-name="Path 286046" d="M-342.409,457.89a1.892,1.892,0,0,1,1.9-1.916,1.909,1.909,0,0,1,1.917,1.911,1.931,1.931,0,0,1-1.9,1.91A1.91,1.91,0,0,1-342.409,457.89Zm2.534-.014a.629.629,0,0,0-.618-.631.641.641,0,0,0-.646.638.629.629,0,0,0,.654.625A.615.615,0,0,0-339.875,457.875Z" transform="translate(-44.209 -220.915)" fill="#366a4b"/>
    <path id="Path_286047" data-name="Path 286047" d="M-342.409,329.817A1.9,1.9,0,0,1-340.5,327.9a1.923,1.923,0,0,1,1.913,1.921,1.924,1.924,0,0,1-1.9,1.9A1.9,1.9,0,0,1-342.409,329.817Zm2.534,0a.635.635,0,0,0-.636-.646.645.645,0,0,0-.627.63.643.643,0,0,0,.641.645A.633.633,0,0,0-339.876,329.819Z" transform="translate(-44.209 -103.047)" fill="#366a4b"/>
    <path id="Path_286048" data-name="Path 286048" d="M-340.506,395.67a1.894,1.894,0,0,1-1.9-1.917,1.911,1.911,0,0,1,1.894-1.9,1.931,1.931,0,0,1,1.927,1.911A1.91,1.91,0,0,1-340.506,395.67Zm.632-1.9a.614.614,0,0,0-.606-.637.628.628,0,0,0-.658.62.644.644,0,0,0,.641.644A.631.631,0,0,0-339.874,393.773Z" transform="translate(-44.21 -161.9)" fill="#366a4b"/>
    <path id="Path_286049" data-name="Path 286049" d="M-275.279,343.823c.787,0,1.573,0,2.36,0a1.474,1.474,0,0,1,.354.037.622.622,0,0,1,.465.59.628.628,0,0,1-.466.619,1.161,1.161,0,0,1-.295.036q-2.419,0-4.839,0a1.209,1.209,0,0,1-.324-.041.619.619,0,0,1-.449-.6.613.613,0,0,1,.45-.6,1.515,1.515,0,0,1,.383-.041C-276.852,343.821-276.066,343.823-275.279,343.823Z" transform="translate(-103.051 -117.702)" fill="#366a4b"/>
    <path id="Path_286050" data-name="Path 286050" d="M-275.922,473.15c-.607,0-1.213,0-1.82,0-.457,0-.741-.253-.737-.638s.3-.629.749-.63q1.8,0,3.61,0c.458,0,.734.248.731.642s-.266.622-.713.626C-274.709,473.154-275.316,473.15-275.922,473.15Z" transform="translate(-103.044 -235.553)" fill="#366a4b"/>
    <path id="Path_286051" data-name="Path 286051" d="M-276.906,409.187c-.3,0-.6.006-.894,0a.643.643,0,0,1-.674-.643.626.626,0,0,1,.66-.621c.626-.009,1.252-.01,1.878,0a.607.607,0,0,1,.639.636.626.626,0,0,1-.655.627C-276.27,409.194-276.588,409.187-276.906,409.187Z" transform="translate(-103.048 -176.686)" fill="#366a4b"/>
    <path id="Path_286052" data-name="Path 286052" d="M-207.474,374.011h-6.1c-.1,0-.2,0-.3,0a.638.638,0,0,1-.63-.628.652.652,0,0,1,.624-.64,3.155,3.155,0,0,0,.614-.1,1.876,1.876,0,0,0,1.309-1.807c.008-1.215,0-2.43,0-3.646a4.457,4.457,0,0,1,3.26-4.477.672.672,0,0,0,.565-.76c0-.408,0-.817,0-1.225A.64.64,0,0,1-207.5,360c.4-.006.639.262.644.727,0,.408,0,.817,0,1.225a.672.672,0,0,0,.574.755,4.439,4.439,0,0,1,3.248,4.364c.01,1.185,0,2.371,0,3.556a1.928,1.928,0,0,0,1.937,2.117.644.644,0,0,1,.616.644.633.633,0,0,1-.694.622q-2.675.007-5.349,0Z" transform="translate(-161.925 -132.588)" fill="#fff"/>
    <path id="Path_286053" data-name="Path 286053" d="M-145.055,552.19a1.858,1.858,0,0,1-1.8,1.25,1.833,1.833,0,0,1-1.722-1.25Z" transform="translate(-222.589 -309.463)" fill="#fff"/>
  </g>
</svg>
