<svg xmlns="http://www.w3.org/2000/svg" width="82.351" height="82.243" viewBox="0 0 82.351 82.243">
  <g id="Search_medical" data-name="Search medical" transform="translate(-32.066 -17.076)">
    <path id="Path_276737" data-name="Path 276737" d="M-1053.528-2.36a6.056,6.056,0,0,1-1.213-.367,9.83,9.83,0,0,1-2.286-1.423q-8.235-8.135-16.388-16.353c-1.135-1.137-1.118-2.019.021-3.177.8-.81.8-.81.009-1.6-.436-.436-.9-.847-1.3-1.314s-.731-.443-1.189-.043a31.7,31.7,0,0,1-9.085,5.526,30.784,30.784,0,0,1-15.81,2.123c-13.788-1.868-22.994-9.509-27.748-22.529a26.784,26.784,0,0,1-1.543-8.323,10.4,10.4,0,0,0-.191-1.255v-1.126a6.141,6.141,0,0,0,.177-.934,32.843,32.843,0,0,1,26.36-30.789,32.79,32.79,0,0,1,38.534,24.827c2.4,10.648.016,20.266-6.94,28.708-.42.51-.518.846.035,1.313a22.756,22.756,0,0,1,1.655,1.641c.283.294.542.325.8,0,1.562-1.919,2.694-1.374,4.221.177,5.095,5.177,10.251,10.294,15.4,15.419a5.794,5.794,0,0,1,1.937,3.507,1.239,1.239,0,0,0,.169.36v.643a4.019,4.019,0,0,0-.209.593,5.141,5.141,0,0,1-4.185,4.184,3.962,3.962,0,0,0-.592.209Zm-43.7-78.56c-16.046-.144-29.236,13.251-29.267,29.191a29.4,29.4,0,0,0,29.23,29.334,29.3,29.3,0,0,0,29.334-29.3A29.258,29.258,0,0,0-1097.229-80.92Zm45.659,73.228a12.031,12.031,0,0,0-.972-1.323q-6.833-6.923-13.691-13.822c-1.383-1.393-1.362-1.362-2.77-.018-.575.549-.617.876-.018,1.466q7.241,7.141,14.423,14.343c.171.17.329.432.531.475a2.715,2.715,0,0,0,1.484.1C-1052.176-6.651-1051.939-7.221-1051.57-7.692Z" transform="translate(1162.316 101.679)" fill="#030303"/>
    <g id="Group_4219" data-name="Group 4219" transform="translate(43 23.668)">
      <path id="Path_276704" data-name="Path 276704" d="M-943.768,459.023a1.048,1.048,0,0,1-.457-.972c.021-1.3.028-2.6,0-3.906a4.835,4.835,0,0,1,2.656-4.655c0-1.361.011-2.738-.006-4.115a.791.791,0,0,1,.655-.9c.585.144.73.322.731.923,0,1.224,0,2.447,0,3.6l2.166.172V448.7c0-2.024-.006-4.049,0-6.073a2.548,2.548,0,0,1,2.756-2.746q4.532,0,9.063,0a2.558,2.558,0,0,1,2.743,2.72q.008,4.877,0,9.753a2.547,2.547,0,0,1-2.737,2.721q-4.025,0-8.051,0h-.5v2.535h14.15v-.529q0-7.177,0-14.354A2.541,2.541,0,0,1-917.869,440q3.059,0,6.119,0a2.552,2.552,0,0,1,2.771,2.777c0,.915,0,1.83,0,2.789l.632-.04h2.031c0-.784,0-1.548,0-2.313,0-.6.146-.772.744-.9a.8.8,0,0,1,.642.914c-.021.762-.006,1.526-.006,2.336.762,0,1.492,0,2.223,0,.784,0,.986.2.986.966,0,3.843,0,7.686.008,11.529a1.066,1.066,0,0,1-.456.971Zm4.134-8.576a3.18,3.18,0,0,0-3.109,2.651,23.35,23.35,0,0,0-.09,2.7c-.011.606,0,1.212,0,1.831h6.677c0-1.271,0-2.51,0-3.748a4.8,4.8,0,0,0-.068-.778A3.268,3.268,0,0,0-939.635,450.447Zm35.435-3.483h-4.749v10.663h5.822V446.964Zm-32.408-4.512a.767.767,0,0,0-.024.135c0,2.375-.007,4.75.008,7.125a.768.768,0,0,0,.25.488,4.729,4.729,0,0,1,1.425,2.312c.1.38.137.776.208,1.2.94,0,1.873,0,2.805,0q2.964-.01,5.927-.024a1.122,1.122,0,0,0,1.163-1.245c.01-3.307,0-6.614,0-9.921a1.463,1.463,0,0,0-.022-.228,1.122,1.122,0,0,0-1.158-1.022q-4.708-.013-9.416,0A1.111,1.111,0,0,0-936.608,442.452Zm24.856,15.174h1.374c.008-.091.017-.149.017-.208q0-7.4,0-14.807a1.122,1.122,0,0,0-1.152-1.223c-2.176-.021-4.353-.01-6.529-.007a1.117,1.117,0,0,0-1.145,1.075c-.007.107-.02.213-.02.32q0,7.256,0,14.512v.338Z" transform="translate(944.981 -411.908)" fill="#030303"/>
      <path id="Path_276705" data-name="Path 276705" d="M-946.322,242.8a.758.758,0,0,1-.643-.826c-.005-1.318,0-2.637,0-3.955v-.521a5.027,5.027,0,0,1-2.513-1.848,4.649,4.649,0,0,1-.9-2.7c-.008-1.4-.018-2.79,0-4.185a3.615,3.615,0,0,1,3.493-3.716c.515-.042,1.037-.006,1.62-.006,0-.382,0-.7,0-1.013a3.165,3.165,0,0,1,3.389-3.387c1.24,0,2.48,0,3.755,0a9.441,9.441,0,0,1,4.027-7.026,9.129,9.129,0,0,1,5.927-1.712,9.234,9.234,0,0,1,6.126,2.686,9.4,9.4,0,0,1,2.843,6.053c1.225,0,2.432,0,3.638,0a5.9,5.9,0,0,1,.959.071,3.06,3.06,0,0,1,2.521,2.728c.041.5.007,1,.007,1.5a19.309,19.309,0,0,1,2.11.184,3.513,3.513,0,0,1,3.047,3.635c.032,1.379.043,2.76,0,4.138a4.752,4.752,0,0,1-3.146,4.488c-.084.035-.166.075-.264.119,0,.752-.01,1.5,0,2.253a.746.746,0,0,1-.658.846c-.558-.128-.721-.317-.725-.871-.005-.666,0-1.333,0-1.93l-2.008-.463-.12-.057A5.269,5.269,0,0,1-916,235.324a4.842,4.842,0,0,1-4.2,2.376,4.879,4.879,0,0,1-4.229-2.35,4.949,4.949,0,0,1-8.426-.012,4.859,4.859,0,0,1-4.225,2.362,4.878,4.878,0,0,1-4.212-2.362,4.993,4.993,0,0,1-4.291,2.381c0,1.382,0,2.745,0,4.108C-945.587,242.473-945.7,242.617-946.322,242.8Zm29.716-17.826h3.168c0-.461.031-.9-.007-1.339a1.712,1.712,0,0,0-1.694-1.607c-.732-.024-1.465.006-2.2.012h-1.788l-.7,2.933Zm-9.749-11.34a13.4,13.4,0,0,0-1.883-.346A8.065,8.065,0,0,0-936.568,223a8.064,8.064,0,0,0,8.465,6.36,3.926,3.926,0,0,0,.411-.007,8.069,8.069,0,0,0,6.008-12.093,7.574,7.574,0,0,0-4.392-3.538l-.185-.07ZM-912.1,226.4c-.167-.012-.334-.035-.5-.035-2.53,0-5.061,0-7.591-.01a.751.751,0,0,0-.707.372,9.452,9.452,0,0,1-15.507.005.752.752,0,0,0-.7-.377c-2.96.014-5.92.006-8.879.011a7.362,7.362,0,0,0-.963.067,2.178,2.178,0,0,0-2.059,2.244c-.033,1.441-.046,2.884,0,4.324a3.476,3.476,0,0,0,3.482,3.341A3.554,3.554,0,0,0-942,233.013c.035-.585.283-.893.712-.882.413.01.647.309.68.868a3.521,3.521,0,0,0,3.278,3.322A3.5,3.5,0,0,0-933.7,233.7a8.5,8.5,0,0,1,.169-.99.917.917,0,0,1,.53-.533.982.982,0,0,1,.687.308c.119.11.126.367.139.561a3.491,3.491,0,0,0,3.219,3.272,3.492,3.492,0,0,0,3.649-2.483,7.429,7.429,0,0,0,.159-1.04.71.71,0,0,1,.7-.66.692.692,0,0,1,.675.676c.008.076.006.153.012.23a3.549,3.549,0,0,0,2.457,3.134,3.525,3.525,0,0,0,3.776-1.131,3.642,3.642,0,0,0,.811-2.2.667.667,0,0,1,.647-.7.689.689,0,0,1,.73.673c.017.121.011.245.02.367a3.434,3.434,0,0,0,2.578,3,3.462,3.462,0,0,0,4.415-3.086c.05-1.483.022-2.969,0-4.454a2.037,2.037,0,0,0-1.647-2.1A14.226,14.226,0,0,0-912.1,226.4Zm-26.091-4.367c-1.345,0-2.736-.034-4.124.014a1.606,1.606,0,0,0-1.507,1.329,11.734,11.734,0,0,0-.014,1.6h6.343Z" transform="translate(950.388 -211.884)" fill="#040303"/>
      <path id="Path_276706" data-name="Path 276706" d="M-917.252,410.4c.624-.179.735-.324.736-.97,0-1.363,0-2.725,0-4.108a4.993,4.993,0,0,0,4.291-2.381,4.878,4.878,0,0,0,4.212,2.362,4.859,4.859,0,0,0,4.225-2.362,4.949,4.949,0,0,0,8.426.012,4.879,4.879,0,0,0,4.229,2.35,4.842,4.842,0,0,0,4.2-2.376,5.27,5.27,0,0,0,2.166,1.963l.12.057c-.01.2-.028.4-.029.594q-.005,3.781-.006,7.563l-.632.04c0-.959,0-1.874,0-2.789a2.553,2.553,0,0,0-2.771-2.777q-3.06,0-6.119,0a2.541,2.541,0,0,0-2.721,2.732q0,7.177,0,14.354v.529h-14.15v-2.535h.5q4.025,0,8.051,0a2.547,2.547,0,0,0,2.737-2.721q.008-4.876,0-9.753a2.558,2.558,0,0,0-2.743-2.72q-4.531,0-9.063,0a2.548,2.548,0,0,0-2.756,2.746c-.008,2.024,0,4.049,0,6.073v.472l-2.166-.172c0-1.157,0-2.381,0-3.6,0-.6-.146-.779-.731-.923Z" transform="translate(921.318 -379.485)" fill="#f7f5f6"/>
      <path id="Path_276717" data-name="Path 276717" d="M-830.454,239.314a8.064,8.064,0,0,1-8.465-6.36,8.065,8.065,0,0,1,8.331-9.713,13.4,13.4,0,0,1,1.883.346l.093.019.185.07a3.1,3.1,0,0,0,.233.306,20.169,20.169,0,0,1,1.893,1.97,8.213,8.213,0,0,1,1.562,6.131,8.3,8.3,0,0,1-3.39,5.884A24.681,24.681,0,0,1-830.454,239.314Zm1.821-10.388c0-.638.007-1.22,0-1.8a.957.957,0,0,0-1.075-1.08c-.843-.009-1.686-.006-2.529,0-.813,0-1.144.336-1.148,1.144,0,.575,0,1.149,0,1.739-.658,0-1.254-.006-1.851,0a.934.934,0,0,0-1.023,1.03c-.008.858,0,1.716,0,2.574,0,.789.323,1.11,1.116,1.117.578.005,1.156,0,1.759,0,0,.6,0,1.155,0,1.705,0,.826.351,1.182,1.163,1.185s1.624,0,2.437,0a1.006,1.006,0,0,0,1.153-1.15c0-.564,0-1.128,0-1.74.647,0,1.256.01,1.865,0a.925.925,0,0,0,1.011-1.039q.01-1.31,0-2.62a.951.951,0,0,0-1.088-1.06C-827.424,228.923-828,228.926-828.633,228.926Z" transform="translate(852.739 -221.84)" fill="#f6f4f5"/>
      <path id="Path_276723" data-name="Path 276723" d="M-754.408,226.139l-.093-.019Z" transform="translate(778.535 -224.373)" fill="#dad7e9"/>
      <path id="Path_276724" data-name="Path 276724" d="M-652.379,418.977l-.12-.057Z" transform="translate(689.048 -393.518)" fill="#dbd8e9"/>
      <path id="Path_276725" data-name="Path 276725" d="M-727.641,512.021a.675.675,0,0,1-.705.681.679.679,0,0,1-.682-.659.7.7,0,0,1,.682-.716A.7.7,0,0,1-727.641,512.021Z" transform="translate(756.188 -474.588)" fill="#060708"/>
      <path id="Path_276726" data-name="Path 276726" d="M-868.153,461.418l.446.006a3.077,3.077,0,0,1,2.208,1.255c.964,1.269,1.946,2.525,2.9,3.8a2.993,2.993,0,0,1-.546,4.254,2.986,2.986,0,0,1-4.178-.583c-.992-1.247-1.953-2.519-2.916-3.789A3,3,0,0,1-868.153,461.418Zm2.651,5.15-1.807,1.333c.4.523.749,1.011,1.135,1.466a1.567,1.567,0,0,0,2.348.1,1.522,1.522,0,0,0,.271-1.948c-.348-.544-.767-1.043-1.174-1.587Zm-.873-1.146.794-.574c-.42-.54-.777-1.057-1.194-1.518a1.422,1.422,0,0,0-1.663-.41,1.524,1.524,0,0,0-.95,2.2,17.691,17.691,0,0,0,1.238,1.722Z" transform="translate(880.692 -430.802)" fill="#030303"/>
      <path id="Path_276727" data-name="Path 276727" d="M-642.869,512.714c-.244,0-.49.016-.733,0a.633.633,0,0,1-.636-.65.594.594,0,0,1,.541-.683,9.564,9.564,0,0,1,1.689.005.592.592,0,0,1,.526.694.624.624,0,0,1-.607.63c-.257.025-.519,0-.779,0Z" transform="translate(681.802 -474.601)" fill="#070603"/>
      <path id="Path_276728" data-name="Path 276728" d="M-642.873,537.418c-.245,0-.491.017-.733,0a.632.632,0,0,1-.632-.654.6.6,0,0,1,.546-.68,9.331,9.331,0,0,1,1.645-.005.608.608,0,0,1,.564.711.636.636,0,0,1-.657.631c-.244.015-.489,0-.733,0Z" transform="translate(681.801 -496.27)" fill="#070603"/>
      <path id="Path_276729" data-name="Path 276729" d="M-642.853,562.17c-.245,0-.49.012-.733,0a.636.636,0,0,1-.655-.633.608.608,0,0,1,.565-.71,9.335,9.335,0,0,1,1.645.006.6.6,0,0,1,.545.681.632.632,0,0,1-.633.653c-.243.021-.489,0-.733,0Z" transform="translate(681.806 -517.983)" fill="#070603"/>
      <path id="Path_276730" data-name="Path 276730" d="M-808.486,249c.629,0,1.209,0,1.789,0a.951.951,0,0,1,1.088,1.06q.009,1.31,0,2.62a.925.925,0,0,1-1.011,1.039c-.609.013-1.218,0-1.865,0,0,.612,0,1.176,0,1.74a1.006,1.006,0,0,1-1.153,1.151q-1.218.006-2.437,0c-.812,0-1.16-.359-1.163-1.185,0-.55,0-1.1,0-1.705-.6,0-1.181,0-1.759,0-.793-.007-1.113-.329-1.116-1.117,0-.858-.006-1.716,0-2.574A.934.934,0,0,1-815.09,249c.6-.008,1.193,0,1.851,0,0-.589,0-1.164,0-1.739,0-.808.336-1.139,1.148-1.144.843,0,1.686-.008,2.528,0a.957.957,0,0,1,1.075,1.08C-808.479,247.777-808.486,248.359-808.486,249Zm-2.562,6.226h1.184V253.83c0-1.474.02-1.494,1.476-1.494h1.375v-1.959c-.678,0-1.332,0-1.987,0-.625,0-.858-.235-.863-.856,0-.654,0-1.309,0-1.994h-2c0,.648,0,1.273,0,1.9,0,.745-.209.953-.951.954-.636,0-1.272,0-1.89,0v1.959c.69,0,1.347-.008,2,0,.6.01.831.253.836.845.005.67,0,1.339,0,2.039Z" transform="translate(832.592 -241.911)" fill="#040303"/>
      <path id="Path_276731" data-name="Path 276731" d="M-856.614,476.159l-1.775,1.416a17.709,17.709,0,0,1-1.238-1.722,1.524,1.524,0,0,1,.95-2.2c.194.23.39.459.581.691Q-857.354,475.252-856.614,476.159Z" transform="translate(870.931 -441.539)" fill="#e85366"/>
      <path id="Path_276732" data-name="Path 276732" d="M-837.834,506.291a1.567,1.567,0,0,1-2.348-.1c-.386-.454-.733-.943-1.135-1.466l1.807-1.333c.18.263.354.531.542.79A4.757,4.757,0,0,1-837.834,506.291Z" transform="translate(854.699 -467.624)" fill="#f5f3f4"/>
      <path id="Path_276733" data-name="Path 276733" d="M-824.912,501.761a4.758,4.758,0,0,0-1.134-2.112c-.188-.258-.361-.526-.542-.79l.773-.634c.406.544.826,1.043,1.174,1.587A1.522,1.522,0,0,1-824.912,501.761Z" transform="translate(841.777 -463.094)" fill="#d9d6e8"/>
      <path id="Path_276734" data-name="Path 276734" d="M-848.457,475.351q-.741-.905-1.482-1.811c-.191-.232-.387-.461-.581-.691a1.422,1.422,0,0,1,1.663.41c.418.462.774.979,1.194,1.518Z" transform="translate(862.774 -440.732)" fill="#e1374e"/>
      <path id="Path_276735" data-name="Path 276735" d="M-800.91,265.351h-.811c0-.7,0-1.369,0-2.039,0-.592-.241-.835-.836-.845-.657-.011-1.314,0-2,0v-1.959c.617,0,1.253,0,1.89,0,.742,0,.949-.209.951-.954,0-.624,0-1.249,0-1.9H-801c.029.086.052.175.088.258a8.691,8.691,0,0,1,.542,5.793C-800.513,264.264-800.727,264.8-800.91,265.351Z" transform="translate(822.454 -252.039)" fill="#e0374e"/>
      <path id="Path_276736" data-name="Path 276736" d="M-775.433,265.351c.182-.548.4-1.087.541-1.645a8.691,8.691,0,0,0-.542-5.793c-.036-.083-.059-.172-.089-.258h1.274c0,.685,0,1.339,0,1.994,0,.621.238.852.863.856.654,0,1.309,0,1.987,0v1.959h-1.375c-1.456,0-1.476.02-1.476,1.494v1.393Z" transform="translate(796.978 -252.039)" fill="#e0374e"/>
    </g>
  </g>
</svg>
