<svg xmlns="http://www.w3.org/2000/svg" width="87" height="84.994" viewBox="0 0 87 84.994">
  <g id="Travelling_" data-name="Travelling &amp; " transform="translate(-141.066 -183.987)">
    <g id="Group_4228" data-name="Group 4228" transform="translate(1902.006 177.597)">
      <path id="Path_276765" data-name="Path 276765" d="M-1520.673,6.39c.571.179,1.153.33,1.712.542a8.119,8.119,0,0,1,5.088,9.043,8.067,8.067,0,0,1-7.816,6.612,8.067,8.067,0,0,1-8.021-6.043,8.2,8.2,0,0,1,6.105-9.958c.207-.05.406-.13.609-.2Zm-6.616,7.987a5.425,5.425,0,0,0,5.476,5.56,5.509,5.509,0,0,0,5.43-5.466,5.488,5.488,0,0,0-5.466-5.422A5.416,5.416,0,0,0-1527.289,14.377Z" transform="translate(-171.734)"/>
      <path id="Path_276766" data-name="Path 276766" d="M-1700.872,126.794c0,2.743-.019,5.259.007,7.776a8.442,8.442,0,0,1-1.181,4.422c-2.316,3.991-4.606,8-6.907,12a5.3,5.3,0,0,1-7.032,2.123,5.052,5.052,0,0,1-2.138-6.844c1.908-3.894,3.909-7.743,5.834-11.628a4.689,4.689,0,0,0,.445-1.729c.512-7.7.886-15.408,1.539-23.094a89.607,89.607,0,0,1,1.708-9.2c.254-1.323.516-2.645.809-4.15-1.954,1.093-3.761,2.087-5.543,3.123-.193.112-.275.458-.358.711q-1.643,5-3.266,10a4.461,4.461,0,0,1-2.994,3.073,1.419,1.419,0,0,0-.7.783q-4.648,11.657-9.257,23.331c-.762,1.926-1.508,3.858-2.3,5.773a.941.941,0,0,0,.234,1.213,4.932,4.932,0,0,1,.822,5.892,5.06,5.06,0,0,1-5.332,2.518,4.941,4.941,0,0,1-4.04-4.459.917.917,0,0,0-.706-.865q-4.054-1.688-8.1-3.4c-1.179-.5-1.416-1.038-.957-2.21,2.587-6.608,5.16-13.222,7.777-19.818a7.768,7.768,0,0,1,10.568-4.4c1.911.8,3.809,1.622,5.776,2.462.1-.208.213-.389.29-.582.813-2.054,1.609-4.115,2.437-6.163a.758.758,0,0,0-.237-1.048,3.979,3.979,0,0,1-1.341-4.471c1.245-4.21,2.511-8.414,3.758-12.624a4.054,4.054,0,0,1,2.036-2.5c3.156-1.715,6.3-3.443,9.476-5.128a13.106,13.106,0,0,1,5.126-1.219c3-.262,5.857.633,8.78,1.009a8.142,8.142,0,0,1,6.656,5.033c1.786,3.677,3.647,7.318,5.5,10.959a3.124,3.124,0,0,0,.947,1.092c2.284,1.606,4.611,3.15,6.895,4.756a4.24,4.24,0,0,1,1.616,5.057,4.159,4.159,0,0,1-4.254,2.921,5.6,5.6,0,0,1-2.391-.8q-4.114-2.569-8.111-5.321a6.442,6.442,0,0,1-1.71-1.952c-.67-1.1-1.181-2.3-1.823-3.581-.754,2.382-1.478,4.612-2.146,6.86a1.314,1.314,0,0,0,.281.884c3.007,4.672,6.007,9.348,9.058,13.992a8.631,8.631,0,0,1,1.418,5.1c-.128,5.392-.244,10.785-.39,16.177a5.29,5.29,0,0,1-5.1,5.033,5.06,5.06,0,0,1-5.2-4.766c-.271-4.582-.422-9.172-.677-13.756a3.447,3.447,0,0,0-.606-1.719c-1.428-2-2.932-3.953-4.41-5.92C-1700.424,127.327-1700.584,127.146-1700.872,126.794Zm-1.066-37.384c-3.631.051-6.081.534-8.356,1.848-2.176,1.257-4.382,2.47-6.632,3.586a3.773,3.773,0,0,0-2.143,2.6c-1.028,3.725-2.189,7.413-3.288,11.118a2.607,2.607,0,0,0-.17,1.047,1.4,1.4,0,0,0,1.316,1.278,1.4,1.4,0,0,0,1.624-1.087c1.154-3.631,2.273-7.272,3.46-10.892a2.533,2.533,0,0,1,.981-1.328c2.7-1.569,5.445-3.053,8.171-4.573A1.508,1.508,0,0,1-1705.26,93a1.453,1.453,0,0,1,.519,1.628c-.909,4.944-1.749,9.9-2.755,14.826a6.492,6.492,0,0,0,1.321,5.571c4.239,5.564,8.435,11.16,12.691,16.71a4.831,4.831,0,0,1,1.058,2.956c.089,3.151.237,6.3.38,9.449a47.107,47.107,0,0,0,.3,4.712,2.379,2.379,0,0,0,3.612,1.73,2.717,2.717,0,0,0,1.485-2.584c.123-5.253.259-10.506.37-15.759a6.252,6.252,0,0,0-1.051-3.6c-3.176-4.89-6.332-9.793-9.519-14.677a2.252,2.252,0,0,1-.286-2.1c1.691-5.314,3.293-10.657,5.026-15.957a3.762,3.762,0,0,0-3.041-5.234C-1697.762,90.3-1700.348,89.712-1701.938,89.411Zm-45.536,52.719c2.51,1.041,4.945,2.06,7.4,3.04.152.061.489-.146.644-.315a4.852,4.852,0,0,1,3.924-1.8c.532.026.634-.277.781-.645q1.906-4.763,3.824-9.522c.089-.223.156-.455.25-.731L-1741.37,127Zm39.322-25.327c-.028.406-.041.571-.05.735-.277,5.216-.529,10.433-.855,15.646a7.045,7.045,0,0,1-.681,2.591c-1.892,3.867-3.877,7.69-5.788,11.548a3.3,3.3,0,0,0-.346,1.653,2.32,2.32,0,0,0,1.927,2.014,2.615,2.615,0,0,0,2.77-1.386c2.331-4.043,4.688-8.071,6.946-12.154a6.583,6.583,0,0,0,.808-2.9c.094-3.646.041-7.3.031-10.945a1.384,1.384,0,0,0-.172-.779C-1705.031,120.864-1706.528,118.924-1708.152,116.8Zm-21.531,12.979,2.648-6.907c-2.1-.889-4.119-1.693-6.1-2.6a5.249,5.249,0,0,0-7.194,4.378Zm39.969-32.376c-.426,1.383-.823,2.559-1.136,3.757a1.852,1.852,0,0,0,.1,1.159c.861,1.853,1.764,3.687,2.687,5.511a2.508,2.508,0,0,0,.779.936q4.137,2.764,8.314,5.467a1.578,1.578,0,0,0,2.237-.508,1.457,1.457,0,0,0-.585-2.055c-2.333-1.584-4.689-3.135-6.983-4.773a5.082,5.082,0,0,1-1.481-1.7C-1687.11,102.685-1688.35,100.126-1689.713,97.406Zm-43.479,50.637a2.239,2.239,0,0,0-2.218-2.355,2.464,2.464,0,0,0-2.432,2.338,2.47,2.47,0,0,0,2.319,2.367A2.262,2.262,0,0,0-1733.192,148.043Z" transform="translate(0 -62.316)"/>
      <path id="Path_276767" data-name="Path 276767" d="M-1517.9,23.729a5.416,5.416,0,0,1,5.44-5.328,5.488,5.488,0,0,1,5.466,5.422,5.509,5.509,0,0,1-5.43,5.466A5.425,5.425,0,0,1-1517.9,23.729Z" transform="translate(-181.125 -9.353)" fill="#fff"/>
      <path id="Path_276768" data-name="Path 276768" d="M-1603.552,99.948c1.59.3,4.176.889,6.792,1.257a3.762,3.762,0,0,1,3.041,5.234c-1.733,5.3-3.334,10.643-5.025,15.957a2.252,2.252,0,0,0,.286,2.1c3.186,4.884,6.343,9.787,9.519,14.677a6.249,6.249,0,0,1,1.051,3.6c-.111,5.253-.247,10.506-.37,15.759a2.717,2.717,0,0,1-1.485,2.584,2.379,2.379,0,0,1-3.613-1.73,47.107,47.107,0,0,1-.3-4.712c-.143-3.149-.291-6.3-.38-9.449a4.83,4.83,0,0,0-1.058-2.956c-4.256-5.55-8.452-11.147-12.691-16.71a6.493,6.493,0,0,1-1.321-5.571c1.006-4.924,1.846-9.882,2.755-14.826a1.453,1.453,0,0,0-.519-1.628,1.508,1.508,0,0,0-1.714.017c-2.727,1.52-5.473,3-8.171,4.573a2.532,2.532,0,0,0-.981,1.328c-1.187,3.62-2.306,7.261-3.46,10.892a1.4,1.4,0,0,1-1.624,1.087,1.4,1.4,0,0,1-1.316-1.278,2.613,2.613,0,0,1,.17-1.047c1.1-3.705,2.26-7.393,3.288-11.118a3.773,3.773,0,0,1,2.143-2.6c2.25-1.116,4.456-2.329,6.632-3.586C-1609.634,100.482-1607.183,100-1603.552,99.948Z" transform="translate(-98.385 -72.854)" fill="#fff"/>
      <path id="Path_276769" data-name="Path 276769" d="M-1736.832,284.924l6.1-15.132,10.716,5.156c-.094.276-.16.508-.25.731q-1.911,4.762-3.824,9.522c-.147.368-.249.67-.781.645a4.852,4.852,0,0,0-3.924,1.8c-.155.17-.491.376-.644.315C-1731.887,286.985-1734.322,285.965-1736.832,284.924Z" transform="translate(-10.642 -205.111)" fill="#def5f4"/>
      <path id="Path_276770" data-name="Path 276770" d="M-1586.34,223.727c1.623,2.12,3.121,4.06,4.591,6.021a1.382,1.382,0,0,1,.171.779c.011,3.649.063,7.3-.031,10.945a6.581,6.581,0,0,1-.808,2.9c-2.258,4.083-4.616,8.111-6.946,12.154a2.614,2.614,0,0,1-2.77,1.386,2.32,2.32,0,0,1-1.927-2.014,3.294,3.294,0,0,1,.346-1.653c1.912-3.858,3.9-7.68,5.788-11.548a7.046,7.046,0,0,0,.681-2.591c.326-5.213.578-10.43.855-15.646C-1586.381,224.3-1586.368,224.133-1586.34,223.727Z" transform="translate(-121.811 -169.24)" fill="#fff"/>
      <path id="Path_276771" data-name="Path 276771" d="M-1693.887,247.466l-10.642-5.125a5.249,5.249,0,0,1,7.195-4.378c1.977.9,4,1.707,6.1,2.6Z" transform="translate(-35.796 -180)" fill="#def5f4"/>
      <path id="Path_276772" data-name="Path 276772" d="M-1480,136.075c1.363,2.72,2.6,5.279,3.932,7.79a5.087,5.087,0,0,0,1.481,1.7c2.295,1.637,4.651,3.188,6.983,4.773a1.457,1.457,0,0,1,.585,2.055,1.578,1.578,0,0,1-2.237.508q-4.172-2.71-8.314-5.467a2.511,2.511,0,0,1-.78-.936c-.922-1.824-1.825-3.658-2.687-5.511a1.853,1.853,0,0,1-.1-1.159C-1480.827,138.634-1480.43,137.458-1480,136.075Z" transform="translate(-209.709 -100.986)" fill="#fff"/>
      <path id="Path_276773" data-name="Path 276773" d="M-1688.66,356.6a2.262,2.262,0,0,1-2.331,2.351,2.47,2.47,0,0,1-2.319-2.367,2.464,2.464,0,0,1,2.432-2.339A2.238,2.238,0,0,1-1688.66,356.6Z" transform="translate(-44.532 -270.878)" fill="#fff"/>
    </g>
    <g id="Group_4229" data-name="Group 4229" transform="translate(1254.915 506.12)">
      <path id="Path_276774" data-name="Path 276774" d="M-1075.348-302.008a19.24,19.24,0,0,1-19.219,19.2,19.234,19.234,0,0,1-19.281-19.14,19.226,19.226,0,0,1,19.216-19.329A19.232,19.232,0,0,1-1075.348-302.008Zm-35.694-.031a16.469,16.469,0,0,0,16.4,16.422,16.453,16.453,0,0,0,16.482-16.394,16.461,16.461,0,0,0-16.422-16.456A16.472,16.472,0,0,0-1111.042-302.038Z" transform="translate(0 0)"/>
      <path id="Path_276775" data-name="Path 276775" d="M-1091.865-282.851a16.472,16.472,0,0,1,16.456-16.427,16.461,16.461,0,0,1,16.422,16.456,16.453,16.453,0,0,1-16.482,16.394A16.469,16.469,0,0,1-1091.865-282.851Zm6.963-7.183a3.386,3.386,0,0,0,1.025,2.321c2.246,2.236,4.494,4.469,6.711,6.733a1.222,1.222,0,0,0,1.387.448.914.914,0,0,1,1.051.343q2.912,2.952,5.865,5.865a4.624,4.624,0,0,0,1.059.8,1.539,1.539,0,0,0,1.876-.305,1.514,1.514,0,0,0,.34-1.867,5.17,5.17,0,0,0-.921-1.2q-7.092-7.12-14.207-14.216a8.476,8.476,0,0,0-.862-.756,1.93,1.93,0,0,0-2.214-.173A2.04,2.04,0,0,0-1084.9-290.033Zm5.636,8.47c-.117.106-.245.213-.363.331q-2.591,2.587-5.179,5.178a1.52,1.52,0,0,0-.185,2.3,1.543,1.543,0,0,0,2.3-.23c1.683-1.679,3.36-3.364,5.05-5.036a3.054,3.054,0,0,1,.6-.369Zm4.719-5.3a2.555,2.555,0,0,0,1.374,2.245,2.725,2.725,0,0,0,3.133-.145,40.086,40.086,0,0,0,3.482-3.346.722.722,0,0,0-.035-.714c-.131-.13-.487-.085-.728-.035-.141.029-.251.216-.371.336-.841.841-1.669,1.7-2.527,2.519a1.925,1.925,0,0,1-2.008.457,1.582,1.582,0,0,1-1.1-1.292,1.9,1.9,0,0,1,.613-1.788l2.613-2.613c.3-.3.507-.64.138-.986-.344-.323-.665-.09-.938.183-.916.916-1.842,1.823-2.746,2.751A3.232,3.232,0,0,0-1074.547-286.859Zm6.536-3.321c-.165-.18-.3-.44-.432-.444a1.091,1.091,0,0,0-.723.24c-1.025.982-2.018,2-3.021,3-.281.282-.459.609-.124.937s.661.126.937-.149c.99-.987,1.982-1.972,2.962-2.97A3.947,3.947,0,0,0-1068.011-290.18Z" transform="translate(-19.177 -19.188)" fill="#ddf4f3"/>
      <path id="Path_276776" data-name="Path 276776" d="M-1037.312-242.425a2.041,2.041,0,0,1,1.11-2.01,1.93,1.93,0,0,1,2.214.173,8.493,8.493,0,0,1,.862.756q7.11,7.1,14.207,14.217a5.167,5.167,0,0,1,.921,1.2,1.514,1.514,0,0,1-.34,1.867,1.539,1.539,0,0,1-1.876.305,4.621,4.621,0,0,1-1.059-.8q-2.95-2.915-5.865-5.865a.914.914,0,0,0-1.051-.343,1.222,1.222,0,0,1-1.387-.448c-2.217-2.264-4.466-4.5-6.711-6.733A3.386,3.386,0,0,1-1037.312-242.425Z" transform="translate(-66.766 -66.796)"/>
      <path id="Path_276777" data-name="Path 276777" d="M-1035.331-160.5l2.224,2.172a3.053,3.053,0,0,0-.6.369c-1.69,1.672-3.367,3.358-5.05,5.036a1.543,1.543,0,0,1-2.3.23,1.52,1.52,0,0,1,.185-2.3q2.585-2.593,5.179-5.178C-1035.576-160.287-1035.448-160.394-1035.331-160.5Z" transform="translate(-63.112 -140.252)"/>
      <path id="Path_276778" data-name="Path 276778" d="M-956.19-239.7a3.232,3.232,0,0,1,.9-2.427c.9-.928,1.83-1.835,2.746-2.751.273-.273.594-.506.938-.183.369.346.158.69-.138.986l-2.613,2.613a1.9,1.9,0,0,0-.613,1.788,1.581,1.581,0,0,0,1.1,1.292,1.925,1.925,0,0,0,2.008-.457c.859-.823,1.686-1.678,2.527-2.519.12-.12.23-.306.371-.336.24-.05.6-.1.728.035a.722.722,0,0,1,.035.714,40.1,40.1,0,0,1-3.482,3.346,2.725,2.725,0,0,1-3.133.145A2.555,2.555,0,0,1-956.19-239.7Z" transform="translate(-137.534 -66.349)"/>
      <path id="Path_276779" data-name="Path 276779" d="M-935.624-231.034a3.937,3.937,0,0,1-.4.614c-.98,1-1.972,1.982-2.962,2.97-.276.275-.6.48-.937.149s-.157-.655.124-.937c1-1,2-2.018,3.021-3a1.09,1.09,0,0,1,.723-.24C-935.92-231.475-935.79-231.214-935.624-231.034Z" transform="translate(-151.564 -78.333)"/>
    </g>
  </g>
</svg>
